<svg width="3435" height="908" viewBox="0 0 3435 908" fill="none" xmlns="http://www.w3.org/2000/svg">
<g clip-path="url(#clip0_19_785)">
<mask id="mask0_19_785" style="mask-type:alpha" maskUnits="userSpaceOnUse" x="-90" y="-673" width="1880" height="1582">
<rect x="-90" y="-673" width="1880" height="1581.19" fill="url(#paint0_linear_19_785)"/>
</mask>
<g mask="url(#mask0_19_785)">
<path d="M-1.29745 79.6829L-46.4237 53.6904L-46.4174 1.68977L-1.285 -24.3152L43.8412 1.68045L43.835 53.681L-1.29745 79.6829ZM-1.29745 235.141L-46.4237 209.149L-46.4174 157.148L-1.285 131.146L43.8412 157.139L43.835 209.136L-1.29745 235.141ZM43.8288 157.139L-1.29745 131.146L-1.29123 79.1488L43.8412 53.1438L88.9674 79.1363L88.9612 131.137L43.8288 157.139ZM-46.4361 157.139L-91.5623 131.146L-91.5561 79.1488L-46.4237 53.1438L-1.29745 79.1363L-1.30367 131.137L-46.4361 157.139Z" stroke="#00B3AA" stroke-width="3.11258"/>
<path d="M-1.29745 702.199L-46.4237 676.207L-46.4174 624.206L-1.285 598.201L43.8412 624.197L43.835 676.197L-1.29745 702.199ZM-1.29745 857.658L-46.4237 831.665L-46.4174 779.664L-1.285 753.663L43.8412 779.655L43.835 831.653L-1.29745 857.658ZM43.8288 779.655L-1.29745 753.663L-1.29123 701.665L43.8412 675.66L88.9674 701.653L88.9612 753.653L43.8288 779.655ZM-46.4361 779.655L-91.5623 753.663L-91.5561 701.665L-46.4237 675.66L-1.29745 701.653L-1.30367 753.653L-46.4361 779.655Z" stroke="#00B3AA" stroke-width="3.11258"/>
<path d="M-1.29745 390.941L-46.4237 364.949L-46.4174 312.948L-1.285 286.943L43.8412 312.939L43.835 364.939L-1.29745 390.941ZM-1.29745 546.4L-46.4237 520.407L-46.4174 468.406L-1.285 442.405L43.8412 468.397L43.835 520.395L-1.29745 546.4ZM43.8288 468.397L-1.29745 442.405L-1.29123 390.407L43.8412 364.402L88.9674 390.395L88.9612 442.395L43.8288 468.397ZM-46.4361 468.397L-91.5623 442.405L-91.5561 390.407L-46.4237 364.402L-1.29745 390.395L-1.30367 442.395L-46.4361 468.397Z" stroke="#00B3AA" stroke-width="3.11258"/>
<path d="M-1.29745 1013.46L-46.4237 987.465L-46.4174 935.465L-1.285 909.46L43.8412 935.455L43.835 987.456L-1.29745 1013.46ZM-1.29745 1168.92L-46.4237 1142.92L-46.4174 1090.92L-1.285 1064.92L43.8412 1090.91L43.835 1142.91L-1.29745 1168.92ZM43.8288 1090.91L-1.29745 1064.92L-1.29123 1012.92L43.8412 986.919L88.9674 1012.91L88.9612 1064.91L43.8288 1090.91ZM-46.4361 1090.91L-91.5623 1064.92L-91.5561 1012.92L-46.4237 986.919L-1.29745 1012.91L-1.30367 1064.91L-46.4361 1090.91Z" stroke="#00B3AA" stroke-width="3.11258"/>
<path d="M-90 -77.2138L-135.126 -103.206L-135.12 -155.207L-89.9875 -181.212L-44.8613 -155.216L-44.8675 -103.216L-90 -77.2138ZM-90 78.2445L-135.126 52.252L-135.12 0.251367L-89.9875 -25.7505L-44.8613 0.242044L-44.8675 52.2395L-90 78.2445ZM-44.8737 0.242044L-90 -25.7505L-89.9937 -77.748L-44.8613 -103.753L0.264934 -77.7604L0.2587 -25.7598L-44.8737 0.242044ZM-135.139 0.242044L-180.265 -25.7505L-180.259 -77.748L-135.126 -103.753L-90 -77.7604L-90.0062 -25.7598L-135.139 0.242044Z" stroke="#00B3AA" stroke-width="3.11258"/>
<path d="M-90 545.303L-135.126 519.31L-135.12 467.31L-89.9875 441.305L-44.8613 467.3L-44.8675 519.301L-90 545.303ZM-90 700.761L-135.126 674.769L-135.12 622.768L-89.9875 596.766L-44.8613 622.759L-44.8675 674.756L-90 700.761ZM-44.8737 622.759L-90 596.766L-89.9937 544.769L-44.8613 518.764L0.264934 544.756L0.2587 596.757L-44.8737 622.759ZM-135.139 622.759L-180.265 596.766L-180.259 544.769L-135.126 518.764L-90 544.756L-90.0062 596.757L-135.139 622.759Z" stroke="#00B3AA" stroke-width="3.11258"/>
<path d="M-90 234.045L-135.126 208.052L-135.12 156.051L-89.9875 130.047L-44.8613 156.042L-44.8675 208.043L-90 234.045ZM-90 389.503L-135.126 363.51L-135.12 311.51L-89.9875 285.508L-44.8613 311.5L-44.8675 363.498L-90 389.503ZM-44.8737 311.5L-90 285.508L-89.9937 233.51L-44.8613 207.505L0.264934 233.498L0.2587 285.499L-44.8737 311.5ZM-135.139 311.5L-180.265 285.508L-180.259 233.51L-135.126 207.505L-90 233.498L-90.0062 285.499L-135.139 311.5Z" stroke="#00B3AA" stroke-width="3.11258"/>
<path d="M-90 856.561L-135.126 830.569L-135.12 778.568L-89.9875 752.563L-44.8613 778.559L-44.8675 830.559L-90 856.561ZM-90 1012.02L-135.126 986.027L-135.12 934.026L-89.9875 908.024L-44.8613 934.017L-44.8675 986.014L-90 1012.02ZM-44.8737 934.017L-90 908.024L-89.9937 856.027L-44.8613 830.022L0.264934 856.015L0.2587 908.015L-44.8737 934.017ZM-135.139 934.017L-180.265 908.024L-180.259 856.027L-135.126 830.022L-90 856.015L-90.0062 908.015L-135.139 934.017Z" stroke="#00B3AA" stroke-width="3.11258"/>
<path d="M177.682 79.6829L132.556 53.6904L132.562 1.68977L177.695 -24.3152L222.821 1.68045L222.815 53.681L177.682 79.6829ZM177.682 235.141L132.556 209.149L132.562 157.148L177.695 131.146L222.821 157.139L222.815 209.136L177.682 235.141ZM222.808 157.139L177.682 131.146L177.688 79.1488L222.821 53.1438L267.947 79.1363L267.941 131.137L222.808 157.139ZM132.543 157.139L87.4172 131.146L87.4235 79.1488L132.556 53.1438L177.682 79.1363L177.676 131.137L132.543 157.139Z" stroke="#00B3AA" stroke-width="3.11258"/>
<path d="M177.682 702.199L132.556 676.207L132.562 624.206L177.695 598.201L222.821 624.197L222.815 676.197L177.682 702.199ZM177.682 857.658L132.556 831.665L132.562 779.664L177.695 753.663L222.821 779.655L222.815 831.653L177.682 857.658ZM222.808 779.655L177.682 753.663L177.688 701.665L222.821 675.66L267.947 701.653L267.941 753.653L222.808 779.655ZM132.543 779.655L87.4172 753.663L87.4235 701.665L132.556 675.66L177.682 701.653L177.676 753.653L132.543 779.655Z" stroke="#00B3AA" stroke-width="3.11258"/>
<path d="M177.682 390.941L132.556 364.949L132.562 312.948L177.695 286.943L222.821 312.939L222.815 364.939L177.682 390.941ZM177.682 546.4L132.556 520.407L132.562 468.406L177.695 442.405L222.821 468.397L222.815 520.395L177.682 546.4ZM222.808 468.397L177.682 442.405L177.688 390.407L222.821 364.402L267.947 390.395L267.941 442.395L222.808 468.397ZM132.543 468.397L87.4172 442.405L87.4235 390.407L132.556 364.402L177.682 390.395L177.676 442.395L132.543 468.397Z" stroke="#00B3AA" stroke-width="3.11258"/>
<path d="M177.682 1013.46L132.556 987.465L132.562 935.465L177.695 909.46L222.821 935.455L222.815 987.456L177.682 1013.46ZM177.682 1168.92L132.556 1142.92L132.562 1090.92L177.695 1064.92L222.821 1090.91L222.815 1142.91L177.682 1168.92ZM222.808 1090.91L177.682 1064.92L177.688 1012.92L222.821 986.919L267.947 1012.91L267.941 1064.91L222.808 1090.91ZM132.543 1090.91L87.4172 1064.92L87.4235 1012.92L132.556 986.919L177.682 1012.91L177.676 1064.91L132.543 1090.91Z" stroke="#00B3AA" stroke-width="3.11258"/>
<path d="M88.9796 -77.2138L43.8534 -103.206L43.8596 -155.207L88.9921 -181.212L134.118 -155.216L134.112 -103.216L88.9796 -77.2138ZM88.9796 78.2445L43.8534 52.252L43.8596 0.251367L88.9921 -25.7505L134.118 0.242044L134.112 52.2395L88.9796 78.2445ZM134.106 0.242044L88.9796 -25.7505L88.9858 -77.748L134.118 -103.753L179.245 -77.7604L179.238 -25.7598L134.106 0.242044ZM43.8409 0.242044L-1.28528 -25.7505L-1.27905 -77.748L43.8534 -103.753L88.9796 -77.7604L88.9734 -25.7598L43.8409 0.242044Z" stroke="#00B3AA" stroke-width="3.11258"/>
<path d="M88.9796 545.303L43.8534 519.31L43.8596 467.31L88.9921 441.305L134.118 467.3L134.112 519.301L88.9796 545.303ZM88.9796 700.761L43.8534 674.769L43.8596 622.768L88.9921 596.766L134.118 622.759L134.112 674.756L88.9796 700.761ZM134.106 622.759L88.9796 596.766L88.9858 544.769L134.118 518.764L179.245 544.756L179.238 596.757L134.106 622.759ZM43.8409 622.759L-1.28528 596.766L-1.27905 544.769L43.8534 518.764L88.9796 544.756L88.9734 596.757L43.8409 622.759Z" stroke="#00B3AA" stroke-width="3.11258"/>
<path d="M88.9796 234.045L43.8534 208.052L43.8596 156.051L88.9921 130.047L134.118 156.042L134.112 208.043L88.9796 234.045ZM88.9796 389.503L43.8534 363.51L43.8596 311.51L88.9921 285.508L134.118 311.5L134.112 363.498L88.9796 389.503ZM134.106 311.5L88.9796 285.508L88.9858 233.51L134.118 207.505L179.245 233.498L179.238 285.499L134.106 311.5ZM43.8409 311.5L-1.28528 285.508L-1.27905 233.51L43.8534 207.505L88.9796 233.498L88.9734 285.499L43.8409 311.5Z" stroke="#00B3AA" stroke-width="3.11258"/>
<path d="M88.9796 856.561L43.8534 830.569L43.8596 778.568L88.9921 752.563L134.118 778.559L134.112 830.559L88.9796 856.561ZM88.9796 1012.02L43.8534 986.027L43.8596 934.026L88.9921 908.024L134.118 934.017L134.112 986.014L88.9796 1012.02ZM134.106 934.017L88.9796 908.024L88.9858 856.027L134.118 830.022L179.245 856.015L179.238 908.015L134.106 934.017ZM43.8409 934.017L-1.28528 908.024L-1.27905 856.027L43.8534 830.022L88.9796 856.015L88.9734 908.015L43.8409 934.017Z" stroke="#00B3AA" stroke-width="3.11258"/>
<path d="M356.662 79.6829L311.536 53.6904L311.542 1.68977L356.674 -24.3152L401.8 1.68045L401.794 53.681L356.662 79.6829ZM356.662 235.141L311.536 209.149L311.542 157.148L356.674 131.146L401.8 157.139L401.794 209.136L356.662 235.141ZM401.788 157.139L356.662 131.146L356.668 79.1488L401.8 53.1438L446.927 79.1363L446.92 131.137L401.788 157.139ZM311.523 157.139L266.397 131.146L266.403 79.1488L311.536 53.1438L356.662 79.1363L356.656 131.137L311.523 157.139Z" stroke="#00B3AA" stroke-width="3.11258"/>
<path d="M356.662 702.199L311.536 676.207L311.542 624.206L356.674 598.201L401.8 624.197L401.794 676.197L356.662 702.199ZM356.662 857.658L311.536 831.665L311.542 779.664L356.674 753.663L401.8 779.655L401.794 831.653L356.662 857.658ZM401.788 779.655L356.662 753.663L356.668 701.665L401.8 675.66L446.927 701.653L446.92 753.653L401.788 779.655ZM311.523 779.655L266.397 753.663L266.403 701.665L311.536 675.66L356.662 701.653L356.656 753.653L311.523 779.655Z" stroke="#00B3AA" stroke-width="3.11258"/>
<path d="M356.662 390.941L311.536 364.949L311.542 312.948L356.674 286.943L401.8 312.939L401.794 364.939L356.662 390.941ZM356.662 546.4L311.536 520.407L311.542 468.406L356.674 442.405L401.8 468.397L401.794 520.395L356.662 546.4ZM401.788 468.397L356.662 442.405L356.668 390.407L401.8 364.402L446.927 390.395L446.92 442.395L401.788 468.397ZM311.523 468.397L266.397 442.405L266.403 390.407L311.536 364.402L356.662 390.395L356.656 442.395L311.523 468.397Z" stroke="#00B3AA" stroke-width="3.11258"/>
<path d="M356.662 1013.46L311.536 987.465L311.542 935.465L356.674 909.46L401.8 935.455L401.794 987.456L356.662 1013.46ZM356.662 1168.92L311.536 1142.92L311.542 1090.92L356.674 1064.92L401.8 1090.91L401.794 1142.91L356.662 1168.92ZM401.788 1090.91L356.662 1064.92L356.668 1012.92L401.8 986.919L446.927 1012.91L446.92 1064.91L401.788 1090.91ZM311.523 1090.91L266.397 1064.92L266.403 1012.92L311.536 986.919L356.662 1012.91L356.656 1064.91L311.523 1090.91Z" stroke="#00B3AA" stroke-width="3.11258"/>
<path d="M267.959 -77.2138L222.833 -103.206L222.839 -155.207L267.972 -181.212L313.098 -155.216L313.092 -103.216L267.959 -77.2138ZM267.959 78.2445L222.833 52.252L222.839 0.251367L267.972 -25.7505L313.098 0.242044L313.092 52.2395L267.959 78.2445ZM313.085 0.242044L267.959 -25.7505L267.965 -77.748L313.098 -103.753L358.224 -77.7604L358.218 -25.7598L313.085 0.242044ZM222.821 0.242044L177.694 -25.7505L177.701 -77.748L222.833 -103.753L267.959 -77.7604L267.953 -25.7598L222.821 0.242044Z" stroke="#00B3AA" stroke-width="3.11258"/>
<path d="M267.959 545.303L222.833 519.31L222.839 467.31L267.972 441.305L313.098 467.3L313.092 519.301L267.959 545.303ZM267.959 700.761L222.833 674.769L222.839 622.768L267.972 596.766L313.098 622.759L313.092 674.756L267.959 700.761ZM313.085 622.759L267.959 596.766L267.965 544.769L313.098 518.764L358.224 544.756L358.218 596.757L313.085 622.759ZM222.821 622.759L177.694 596.766L177.701 544.769L222.833 518.764L267.959 544.756L267.953 596.757L222.821 622.759Z" stroke="#00B3AA" stroke-width="3.11258"/>
<path d="M267.959 234.045L222.833 208.052L222.839 156.051L267.972 130.047L313.098 156.042L313.092 208.043L267.959 234.045ZM267.959 389.503L222.833 363.51L222.839 311.51L267.972 285.508L313.098 311.5L313.092 363.498L267.959 389.503ZM313.085 311.5L267.959 285.508L267.965 233.51L313.098 207.505L358.224 233.498L358.218 285.499L313.085 311.5ZM222.821 311.5L177.694 285.508L177.701 233.51L222.833 207.505L267.959 233.498L267.953 285.499L222.821 311.5Z" stroke="#00B3AA" stroke-width="3.11258"/>
<path d="M267.959 856.561L222.833 830.569L222.839 778.568L267.972 752.563L313.098 778.559L313.092 830.559L267.959 856.561ZM267.959 1012.02L222.833 986.027L222.839 934.026L267.972 908.024L313.098 934.017L313.092 986.014L267.959 1012.02ZM313.085 934.017L267.959 908.024L267.965 856.027L313.098 830.022L358.224 856.015L358.218 908.015L313.085 934.017ZM222.821 934.017L177.694 908.024L177.701 856.027L222.833 830.022L267.959 856.015L267.953 908.015L222.821 934.017Z" stroke="#00B3AA" stroke-width="3.11258"/>
<path d="M535.641 79.6829L490.515 53.6904L490.521 1.68977L535.654 -24.3152L580.78 1.68045L580.774 53.681L535.641 79.6829ZM535.641 235.141L490.515 209.149L490.521 157.148L535.654 131.146L580.78 157.139L580.774 209.136L535.641 235.141ZM580.768 157.139L535.641 131.146L535.648 79.1488L580.78 53.1438L625.906 79.1363L625.9 131.137L580.768 157.139ZM490.503 157.139L445.376 131.146L445.383 79.1488L490.515 53.1438L535.641 79.1363L535.635 131.137L490.503 157.139Z" stroke="#00B3AA" stroke-width="3.11258"/>
<path d="M535.641 702.199L490.515 676.207L490.521 624.206L535.654 598.201L580.78 624.197L580.774 676.197L535.641 702.199ZM535.641 857.658L490.515 831.665L490.521 779.664L535.654 753.663L580.78 779.655L580.774 831.653L535.641 857.658ZM580.768 779.655L535.641 753.663L535.648 701.665L580.78 675.66L625.906 701.653L625.9 753.653L580.768 779.655ZM490.503 779.655L445.376 753.663L445.383 701.665L490.515 675.66L535.641 701.653L535.635 753.653L490.503 779.655Z" stroke="#00B3AA" stroke-width="3.11258"/>
<path d="M535.641 390.941L490.515 364.949L490.521 312.948L535.654 286.943L580.78 312.939L580.774 364.939L535.641 390.941ZM535.641 546.4L490.515 520.407L490.521 468.406L535.654 442.405L580.78 468.397L580.774 520.395L535.641 546.4ZM580.768 468.397L535.641 442.405L535.648 390.407L580.78 364.402L625.906 390.395L625.9 442.395L580.768 468.397ZM490.503 468.397L445.376 442.405L445.383 390.407L490.515 364.402L535.641 390.395L535.635 442.395L490.503 468.397Z" stroke="#00B3AA" stroke-width="3.11258"/>
<path d="M535.641 1013.46L490.515 987.465L490.521 935.465L535.654 909.46L580.78 935.455L580.774 987.456L535.641 1013.46ZM535.641 1168.92L490.515 1142.92L490.521 1090.92L535.654 1064.92L580.78 1090.91L580.774 1142.91L535.641 1168.92ZM580.768 1090.91L535.641 1064.92L535.648 1012.92L580.78 986.919L625.906 1012.91L625.9 1064.91L580.768 1090.91ZM490.503 1090.91L445.376 1064.92L445.383 1012.92L490.515 986.919L535.641 1012.91L535.635 1064.91L490.503 1090.91Z" stroke="#00B3AA" stroke-width="3.11258"/>
<path d="M446.939 -77.2138L401.813 -103.206L401.819 -155.207L446.951 -181.212L492.078 -155.216L492.071 -103.216L446.939 -77.2138ZM446.939 78.2445L401.813 52.252L401.819 0.251367L446.951 -25.7505L492.078 0.242044L492.071 52.2395L446.939 78.2445ZM492.065 0.242044L446.939 -25.7505L446.945 -77.748L492.078 -103.753L537.204 -77.7604L537.198 -25.7598L492.065 0.242044ZM401.8 0.242044L356.674 -25.7505L356.68 -77.748L401.813 -103.753L446.939 -77.7604L446.933 -25.7598L401.8 0.242044Z" stroke="#00B3AA" stroke-width="3.11258"/>
<path d="M446.939 545.303L401.813 519.31L401.819 467.31L446.951 441.305L492.078 467.3L492.071 519.301L446.939 545.303ZM446.939 700.761L401.813 674.769L401.819 622.768L446.951 596.766L492.078 622.759L492.071 674.756L446.939 700.761ZM492.065 622.759L446.939 596.766L446.945 544.769L492.078 518.764L537.204 544.756L537.198 596.757L492.065 622.759ZM401.8 622.759L356.674 596.766L356.68 544.769L401.813 518.764L446.939 544.756L446.933 596.757L401.8 622.759Z" stroke="#00B3AA" stroke-width="3.11258"/>
<path d="M446.939 234.045L401.813 208.052L401.819 156.051L446.951 130.047L492.078 156.042L492.071 208.043L446.939 234.045ZM446.939 389.503L401.813 363.51L401.819 311.51L446.951 285.508L492.078 311.5L492.071 363.498L446.939 389.503ZM492.065 311.5L446.939 285.508L446.945 233.51L492.078 207.505L537.204 233.498L537.198 285.499L492.065 311.5ZM401.8 311.5L356.674 285.508L356.68 233.51L401.813 207.505L446.939 233.498L446.933 285.499L401.8 311.5Z" stroke="#00B3AA" stroke-width="3.11258"/>
<path d="M446.939 856.561L401.813 830.569L401.819 778.568L446.951 752.563L492.078 778.559L492.071 830.559L446.939 856.561ZM446.939 1012.02L401.813 986.027L401.819 934.026L446.951 908.024L492.078 934.017L492.071 986.014L446.939 1012.02ZM492.065 934.017L446.939 908.024L446.945 856.027L492.078 830.022L537.204 856.015L537.198 908.015L492.065 934.017ZM401.8 934.017L356.674 908.024L356.68 856.027L401.813 830.022L446.939 856.015L446.933 908.015L401.8 934.017Z" stroke="#00B3AA" stroke-width="3.11258"/>
<path d="M714.621 79.6829L669.495 53.6904L669.501 1.68977L714.633 -24.3152L759.76 1.68045L759.753 53.681L714.621 79.6829ZM714.621 235.141L669.495 209.149L669.501 157.148L714.633 131.146L759.76 157.139L759.753 209.136L714.621 235.141ZM759.747 157.139L714.621 131.146L714.627 79.1488L759.76 53.1438L804.886 79.1363L804.88 131.137L759.747 157.139ZM669.482 157.139L624.356 131.146L624.362 79.1488L669.495 53.1438L714.621 79.1363L714.615 131.137L669.482 157.139Z" stroke="#00B3AA" stroke-width="3.11258"/>
<path d="M714.621 702.199L669.495 676.207L669.501 624.206L714.633 598.201L759.76 624.197L759.753 676.197L714.621 702.199ZM714.621 857.658L669.495 831.665L669.501 779.664L714.633 753.663L759.76 779.655L759.753 831.653L714.621 857.658ZM759.747 779.655L714.621 753.663L714.627 701.665L759.76 675.66L804.886 701.653L804.88 753.653L759.747 779.655ZM669.482 779.655L624.356 753.663L624.362 701.665L669.495 675.66L714.621 701.653L714.615 753.653L669.482 779.655Z" stroke="#00B3AA" stroke-width="3.11258"/>
<path d="M714.621 390.941L669.495 364.949L669.501 312.948L714.633 286.943L759.76 312.939L759.753 364.939L714.621 390.941ZM714.621 546.4L669.495 520.407L669.501 468.406L714.633 442.405L759.76 468.397L759.753 520.395L714.621 546.4ZM759.747 468.397L714.621 442.405L714.627 390.407L759.76 364.402L804.886 390.395L804.88 442.395L759.747 468.397ZM669.482 468.397L624.356 442.405L624.362 390.407L669.495 364.402L714.621 390.395L714.615 442.395L669.482 468.397Z" stroke="#00B3AA" stroke-width="3.11258"/>
<path d="M714.621 1013.46L669.495 987.465L669.501 935.465L714.633 909.46L759.76 935.455L759.753 987.456L714.621 1013.46ZM714.621 1168.92L669.495 1142.92L669.501 1090.92L714.633 1064.92L759.76 1090.91L759.753 1142.91L714.621 1168.92ZM759.747 1090.91L714.621 1064.92L714.627 1012.92L759.76 986.919L804.886 1012.91L804.88 1064.91L759.747 1090.91ZM669.482 1090.91L624.356 1064.92L624.362 1012.92L669.495 986.919L714.621 1012.91L714.615 1064.91L669.482 1090.91Z" stroke="#00B3AA" stroke-width="3.11258"/>
<path d="M625.918 -77.2138L580.792 -103.206L580.798 -155.207L625.931 -181.212L671.057 -155.216L671.051 -103.216L625.918 -77.2138ZM625.918 78.2445L580.792 52.252L580.798 0.251367L625.931 -25.7505L671.057 0.242044L671.051 52.2395L625.918 78.2445ZM671.045 0.242044L625.918 -25.7505L625.925 -77.748L671.057 -103.753L716.183 -77.7604L716.177 -25.7598L671.045 0.242044ZM580.78 0.242044L535.654 -25.7505L535.66 -77.748L580.792 -103.753L625.918 -77.7604L625.912 -25.7598L580.78 0.242044Z" stroke="#00B3AA" stroke-width="3.11258"/>
<path d="M625.918 545.303L580.792 519.31L580.798 467.31L625.931 441.305L671.057 467.3L671.051 519.301L625.918 545.303ZM625.918 700.761L580.792 674.769L580.798 622.768L625.931 596.766L671.057 622.759L671.051 674.756L625.918 700.761ZM671.045 622.759L625.918 596.766L625.925 544.769L671.057 518.764L716.183 544.756L716.177 596.757L671.045 622.759ZM580.78 622.759L535.654 596.766L535.66 544.769L580.792 518.764L625.918 544.756L625.912 596.757L580.78 622.759Z" stroke="#00B3AA" stroke-width="3.11258"/>
<path d="M625.918 234.045L580.792 208.052L580.798 156.051L625.931 130.047L671.057 156.042L671.051 208.043L625.918 234.045ZM625.918 389.503L580.792 363.51L580.798 311.51L625.931 285.508L671.057 311.5L671.051 363.498L625.918 389.503ZM671.045 311.5L625.918 285.508L625.925 233.51L671.057 207.505L716.183 233.498L716.177 285.499L671.045 311.5ZM580.78 311.5L535.654 285.508L535.66 233.51L580.792 207.505L625.918 233.498L625.912 285.499L580.78 311.5Z" stroke="#00B3AA" stroke-width="3.11258"/>
<path d="M625.918 856.561L580.792 830.569L580.798 778.568L625.931 752.563L671.057 778.559L671.051 830.559L625.918 856.561ZM625.918 1012.02L580.792 986.027L580.798 934.026L625.931 908.024L671.057 934.017L671.051 986.014L625.918 1012.02ZM671.045 934.017L625.918 908.024L625.925 856.027L671.057 830.022L716.183 856.015L716.177 908.015L671.045 934.017ZM580.78 934.017L535.654 908.024L535.66 856.027L580.792 830.022L625.918 856.015L625.912 908.015L580.78 934.017Z" stroke="#00B3AA" stroke-width="3.11258"/>
<path d="M893.601 79.6829L848.474 53.6904L848.481 1.68977L893.613 -24.3152L938.739 1.68045L938.733 53.681L893.601 79.6829ZM893.601 235.141L848.474 209.149L848.481 157.148L893.613 131.146L938.739 157.139L938.733 209.136L893.601 235.141ZM938.727 157.139L893.601 131.146L893.607 79.1488L938.739 53.1438L983.865 79.1363L983.859 131.137L938.727 157.139ZM848.462 157.139L803.336 131.146L803.342 79.1488L848.474 53.1438L893.601 79.1363L893.594 131.137L848.462 157.139Z" stroke="#00B3AA" stroke-width="3.11258"/>
<path d="M893.601 702.199L848.474 676.207L848.481 624.206L893.613 598.201L938.739 624.197L938.733 676.197L893.601 702.199ZM893.601 857.658L848.474 831.665L848.481 779.664L893.613 753.663L938.739 779.655L938.733 831.653L893.601 857.658ZM938.727 779.655L893.601 753.663L893.607 701.665L938.739 675.66L983.865 701.653L983.859 753.653L938.727 779.655ZM848.462 779.655L803.336 753.663L803.342 701.665L848.474 675.66L893.601 701.653L893.594 753.653L848.462 779.655Z" stroke="#00B3AA" stroke-width="3.11258"/>
<path d="M893.601 390.941L848.474 364.949L848.481 312.948L893.613 286.943L938.739 312.939L938.733 364.939L893.601 390.941ZM893.601 546.4L848.474 520.407L848.481 468.406L893.613 442.405L938.739 468.397L938.733 520.395L893.601 546.4ZM938.727 468.397L893.601 442.405L893.607 390.407L938.739 364.402L983.865 390.395L983.859 442.395L938.727 468.397ZM848.462 468.397L803.336 442.405L803.342 390.407L848.474 364.402L893.601 390.395L893.594 442.395L848.462 468.397Z" stroke="#00B3AA" stroke-width="3.11258"/>
<path d="M893.601 1013.46L848.474 987.465L848.481 935.465L893.613 909.46L938.739 935.455L938.733 987.456L893.601 1013.46ZM893.601 1168.92L848.474 1142.92L848.481 1090.92L893.613 1064.92L938.739 1090.91L938.733 1142.91L893.601 1168.92ZM938.727 1090.91L893.601 1064.92L893.607 1012.92L938.739 986.919L983.865 1012.91L983.859 1064.91L938.727 1090.91ZM848.462 1090.91L803.336 1064.92L803.342 1012.92L848.474 986.919L893.601 1012.91L893.594 1064.91L848.462 1090.91Z" stroke="#00B3AA" stroke-width="3.11258"/>
<path d="M804.898 -77.2138L759.772 -103.206L759.778 -155.207L804.91 -181.212L850.037 -155.216L850.03 -103.216L804.898 -77.2138ZM804.898 78.2445L759.772 52.252L759.778 0.251367L804.91 -25.7505L850.037 0.242044L850.03 52.2395L804.898 78.2445ZM850.024 0.242044L804.898 -25.7505L804.904 -77.748L850.037 -103.753L895.163 -77.7604L895.156 -25.7598L850.024 0.242044ZM759.759 0.242044L714.633 -25.7505L714.639 -77.748L759.772 -103.753L804.898 -77.7604L804.892 -25.7598L759.759 0.242044Z" stroke="#00B3AA" stroke-width="3.11258"/>
<path d="M804.898 545.303L759.772 519.31L759.778 467.31L804.91 441.305L850.037 467.3L850.03 519.301L804.898 545.303ZM804.898 700.761L759.772 674.769L759.778 622.768L804.91 596.766L850.037 622.759L850.03 674.756L804.898 700.761ZM850.024 622.759L804.898 596.766L804.904 544.769L850.037 518.764L895.163 544.756L895.156 596.757L850.024 622.759ZM759.759 622.759L714.633 596.766L714.639 544.769L759.772 518.764L804.898 544.756L804.892 596.757L759.759 622.759Z" stroke="#00B3AA" stroke-width="3.11258"/>
<path d="M804.898 234.045L759.772 208.052L759.778 156.051L804.91 130.047L850.037 156.042L850.03 208.043L804.898 234.045ZM804.898 389.503L759.772 363.51L759.778 311.51L804.91 285.508L850.037 311.5L850.03 363.498L804.898 389.503ZM850.024 311.5L804.898 285.508L804.904 233.51L850.037 207.505L895.163 233.498L895.156 285.499L850.024 311.5ZM759.759 311.5L714.633 285.508L714.639 233.51L759.772 207.505L804.898 233.498L804.892 285.499L759.759 311.5Z" stroke="#00B3AA" stroke-width="3.11258"/>
<path d="M804.898 856.561L759.772 830.569L759.778 778.568L804.91 752.563L850.037 778.559L850.03 830.559L804.898 856.561ZM804.898 1012.02L759.772 986.027L759.778 934.026L804.91 908.024L850.037 934.017L850.03 986.014L804.898 1012.02ZM850.024 934.017L804.898 908.024L804.904 856.027L850.037 830.022L895.163 856.015L895.156 908.015L850.024 934.017ZM759.759 934.017L714.633 908.024L714.639 856.027L759.772 830.022L804.898 856.015L804.892 908.015L759.759 934.017Z" stroke="#00B3AA" stroke-width="3.11258"/>
<path d="M1072.58 79.6829L1027.45 53.6904L1027.46 1.68977L1072.59 -24.3152L1117.72 1.68045L1117.71 53.681L1072.58 79.6829ZM1072.58 235.141L1027.45 209.149L1027.46 157.148L1072.59 131.146L1117.72 157.139L1117.71 209.136L1072.58 235.141ZM1117.71 157.139L1072.58 131.146L1072.59 79.1488L1117.72 53.1438L1162.85 79.1363L1162.84 131.137L1117.71 157.139ZM1027.44 157.139L982.315 131.146L982.322 79.1488L1027.45 53.1438L1072.58 79.1363L1072.57 131.137L1027.44 157.139Z" stroke="#00B3AA" stroke-width="3.11258"/>
<path d="M1072.58 702.199L1027.45 676.207L1027.46 624.206L1072.59 598.201L1117.72 624.197L1117.71 676.197L1072.58 702.199ZM1072.58 857.658L1027.45 831.665L1027.46 779.664L1072.59 753.663L1117.72 779.655L1117.71 831.653L1072.58 857.658ZM1117.71 779.655L1072.58 753.663L1072.59 701.665L1117.72 675.66L1162.85 701.653L1162.84 753.653L1117.71 779.655ZM1027.44 779.655L982.315 753.663L982.322 701.665L1027.45 675.66L1072.58 701.653L1072.57 753.653L1027.44 779.655Z" stroke="#00B3AA" stroke-width="3.11258"/>
<path d="M1072.58 390.941L1027.45 364.949L1027.46 312.948L1072.59 286.943L1117.72 312.939L1117.71 364.939L1072.58 390.941ZM1072.58 546.4L1027.45 520.407L1027.46 468.406L1072.59 442.405L1117.72 468.397L1117.71 520.395L1072.58 546.4ZM1117.71 468.397L1072.58 442.405L1072.59 390.407L1117.72 364.402L1162.85 390.395L1162.84 442.395L1117.71 468.397ZM1027.44 468.397L982.315 442.405L982.322 390.407L1027.45 364.402L1072.58 390.395L1072.57 442.395L1027.44 468.397Z" stroke="#00B3AA" stroke-width="3.11258"/>
<path d="M1072.58 1013.46L1027.45 987.465L1027.46 935.465L1072.59 909.46L1117.72 935.455L1117.71 987.456L1072.58 1013.46ZM1072.58 1168.92L1027.45 1142.92L1027.46 1090.92L1072.59 1064.92L1117.72 1090.91L1117.71 1142.91L1072.58 1168.92ZM1117.71 1090.91L1072.58 1064.92L1072.59 1012.92L1117.72 986.919L1162.85 1012.91L1162.84 1064.91L1117.71 1090.91ZM1027.44 1090.91L982.315 1064.92L982.322 1012.92L1027.45 986.919L1072.58 1012.91L1072.57 1064.91L1027.44 1090.91Z" stroke="#00B3AA" stroke-width="3.11258"/>
<path d="M983.877 -77.2138L938.751 -103.206L938.757 -155.207L983.89 -181.212L1029.02 -155.216L1029.01 -103.216L983.877 -77.2138ZM983.877 78.2445L938.751 52.252L938.757 0.251367L983.89 -25.7505L1029.02 0.242044L1029.01 52.2395L983.877 78.2445ZM1029 0.242044L983.877 -25.7505L983.884 -77.748L1029.02 -103.753L1074.14 -77.7604L1074.14 -25.7598L1029 0.242044ZM938.739 0.242044L893.613 -25.7505L893.619 -77.748L938.751 -103.753L983.877 -77.7604L983.871 -25.7598L938.739 0.242044Z" stroke="#00B3AA" stroke-width="3.11258"/>
<path d="M983.877 545.303L938.751 519.31L938.757 467.31L983.89 441.305L1029.02 467.3L1029.01 519.301L983.877 545.303ZM983.877 700.761L938.751 674.769L938.757 622.768L983.89 596.766L1029.02 622.759L1029.01 674.756L983.877 700.761ZM1029 622.759L983.877 596.766L983.884 544.769L1029.02 518.764L1074.14 544.756L1074.14 596.757L1029 622.759ZM938.739 622.759L893.613 596.766L893.619 544.769L938.751 518.764L983.877 544.756L983.871 596.757L938.739 622.759Z" stroke="#00B3AA" stroke-width="3.11258"/>
<path d="M983.877 234.045L938.751 208.052L938.757 156.051L983.89 130.047L1029.02 156.042L1029.01 208.043L983.877 234.045ZM983.877 389.503L938.751 363.51L938.757 311.51L983.89 285.508L1029.02 311.5L1029.01 363.498L983.877 389.503ZM1029 311.5L983.877 285.508L983.884 233.51L1029.02 207.505L1074.14 233.498L1074.14 285.499L1029 311.5ZM938.739 311.5L893.613 285.508L893.619 233.51L938.751 207.505L983.877 233.498L983.871 285.499L938.739 311.5Z" stroke="#00B3AA" stroke-width="3.11258"/>
<path d="M983.877 856.561L938.751 830.569L938.757 778.568L983.89 752.563L1029.02 778.559L1029.01 830.559L983.877 856.561ZM983.877 1012.02L938.751 986.027L938.757 934.026L983.89 908.024L1029.02 934.017L1029.01 986.014L983.877 1012.02ZM1029 934.017L983.877 908.024L983.884 856.027L1029.02 830.022L1074.14 856.015L1074.14 908.015L1029 934.017ZM938.739 934.017L893.613 908.024L893.619 856.027L938.751 830.022L983.877 856.015L983.871 908.015L938.739 934.017Z" stroke="#00B3AA" stroke-width="3.11258"/>
<path d="M1251.56 79.6829L1206.43 53.6904L1206.44 1.68977L1251.57 -24.3152L1296.7 1.68045L1296.69 53.681L1251.56 79.6829ZM1251.56 235.141L1206.43 209.149L1206.44 157.148L1251.57 131.146L1296.7 157.139L1296.69 209.136L1251.56 235.141ZM1296.69 157.139L1251.56 131.146L1251.57 79.1488L1296.7 53.1438L1341.82 79.1363L1341.82 131.137L1296.69 157.139ZM1206.42 157.139L1161.29 131.146L1161.3 79.1488L1206.43 53.1438L1251.56 79.1363L1251.55 131.137L1206.42 157.139Z" stroke="#00B3AA" stroke-width="3.11258"/>
<path d="M1251.56 702.199L1206.43 676.207L1206.44 624.206L1251.57 598.201L1296.7 624.197L1296.69 676.197L1251.56 702.199ZM1251.56 857.658L1206.43 831.665L1206.44 779.664L1251.57 753.663L1296.7 779.655L1296.69 831.653L1251.56 857.658ZM1296.69 779.655L1251.56 753.663L1251.57 701.665L1296.7 675.66L1341.82 701.653L1341.82 753.653L1296.69 779.655ZM1206.42 779.655L1161.29 753.663L1161.3 701.665L1206.43 675.66L1251.56 701.653L1251.55 753.653L1206.42 779.655Z" stroke="#00B3AA" stroke-width="3.11258"/>
<path d="M1251.56 390.941L1206.43 364.949L1206.44 312.948L1251.57 286.943L1296.7 312.939L1296.69 364.939L1251.56 390.941ZM1251.56 546.4L1206.43 520.407L1206.44 468.406L1251.57 442.405L1296.7 468.397L1296.69 520.395L1251.56 546.4ZM1296.69 468.397L1251.56 442.405L1251.57 390.407L1296.7 364.402L1341.82 390.395L1341.82 442.395L1296.69 468.397ZM1206.42 468.397L1161.29 442.405L1161.3 390.407L1206.43 364.402L1251.56 390.395L1251.55 442.395L1206.42 468.397Z" stroke="#00B3AA" stroke-width="3.11258"/>
<path d="M1251.56 1013.46L1206.43 987.465L1206.44 935.465L1251.57 909.46L1296.7 935.455L1296.69 987.456L1251.56 1013.46ZM1251.56 1168.92L1206.43 1142.92L1206.44 1090.92L1251.57 1064.92L1296.7 1090.91L1296.69 1142.91L1251.56 1168.92ZM1296.69 1090.91L1251.56 1064.92L1251.57 1012.92L1296.7 986.919L1341.82 1012.91L1341.82 1064.91L1296.69 1090.91ZM1206.42 1090.91L1161.29 1064.92L1161.3 1012.92L1206.43 986.919L1251.56 1012.91L1251.55 1064.91L1206.42 1090.91Z" stroke="#00B3AA" stroke-width="3.11258"/>
<path d="M1162.86 -77.2138L1117.73 -103.206L1117.74 -155.207L1162.87 -181.212L1208 -155.216L1207.99 -103.216L1162.86 -77.2138ZM1162.86 78.2445L1117.73 52.252L1117.74 0.251367L1162.87 -25.7505L1208 0.242044L1207.99 52.2395L1162.86 78.2445ZM1207.98 0.242044L1162.86 -25.7505L1162.86 -77.748L1208 -103.753L1253.12 -77.7604L1253.12 -25.7598L1207.98 0.242044ZM1117.72 0.242044L1072.59 -25.7505L1072.6 -77.748L1117.73 -103.753L1162.86 -77.7604L1162.85 -25.7598L1117.72 0.242044Z" stroke="#00B3AA" stroke-width="3.11258"/>
<path d="M1162.86 545.303L1117.73 519.31L1117.74 467.31L1162.87 441.305L1208 467.3L1207.99 519.301L1162.86 545.303ZM1162.86 700.761L1117.73 674.769L1117.74 622.768L1162.87 596.766L1208 622.759L1207.99 674.756L1162.86 700.761ZM1207.98 622.759L1162.86 596.766L1162.86 544.769L1208 518.764L1253.12 544.756L1253.12 596.757L1207.98 622.759ZM1117.72 622.759L1072.59 596.766L1072.6 544.769L1117.73 518.764L1162.86 544.756L1162.85 596.757L1117.72 622.759Z" stroke="#00B3AA" stroke-width="3.11258"/>
<path d="M1162.86 234.045L1117.73 208.052L1117.74 156.051L1162.87 130.047L1208 156.042L1207.99 208.043L1162.86 234.045ZM1162.86 389.503L1117.73 363.51L1117.74 311.51L1162.87 285.508L1208 311.5L1207.99 363.498L1162.86 389.503ZM1207.98 311.5L1162.86 285.508L1162.86 233.51L1208 207.505L1253.12 233.498L1253.12 285.499L1207.98 311.5ZM1117.72 311.5L1072.59 285.508L1072.6 233.51L1117.73 207.505L1162.86 233.498L1162.85 285.499L1117.72 311.5Z" stroke="#00B3AA" stroke-width="3.11258"/>
<path d="M1162.86 856.561L1117.73 830.569L1117.74 778.568L1162.87 752.563L1208 778.559L1207.99 830.559L1162.86 856.561ZM1162.86 1012.02L1117.73 986.027L1117.74 934.026L1162.87 908.024L1208 934.017L1207.99 986.014L1162.86 1012.02ZM1207.98 934.017L1162.86 908.024L1162.86 856.027L1208 830.022L1253.12 856.015L1253.12 908.015L1207.98 934.017ZM1117.72 934.017L1072.59 908.024L1072.6 856.027L1117.73 830.022L1162.86 856.015L1162.85 908.015L1117.72 934.017Z" stroke="#00B3AA" stroke-width="3.11258"/>
<path d="M1430.54 79.6829L1385.41 53.6904L1385.42 1.68977L1430.55 -24.3152L1475.68 1.68045L1475.67 53.681L1430.54 79.6829ZM1430.54 235.141L1385.41 209.149L1385.42 157.148L1430.55 131.146L1475.68 157.139L1475.67 209.136L1430.54 235.141ZM1475.67 157.139L1430.54 131.146L1430.55 79.1488L1475.68 53.1438L1520.8 79.1363L1520.8 131.137L1475.67 157.139ZM1385.4 157.139L1340.27 131.146L1340.28 79.1488L1385.41 53.1438L1430.54 79.1363L1430.53 131.137L1385.4 157.139Z" stroke="#00B3AA" stroke-width="3.11258"/>
<path d="M1430.54 702.199L1385.41 676.207L1385.42 624.206L1430.55 598.201L1475.68 624.197L1475.67 676.197L1430.54 702.199ZM1430.54 857.658L1385.41 831.665L1385.42 779.664L1430.55 753.663L1475.68 779.655L1475.67 831.653L1430.54 857.658ZM1475.67 779.655L1430.54 753.663L1430.55 701.665L1475.68 675.66L1520.8 701.653L1520.8 753.653L1475.67 779.655ZM1385.4 779.655L1340.27 753.663L1340.28 701.665L1385.41 675.66L1430.54 701.653L1430.53 753.653L1385.4 779.655Z" stroke="#00B3AA" stroke-width="3.11258"/>
<path d="M1430.54 390.941L1385.41 364.949L1385.42 312.948L1430.55 286.943L1475.68 312.939L1475.67 364.939L1430.54 390.941ZM1430.54 546.4L1385.41 520.407L1385.42 468.406L1430.55 442.405L1475.68 468.397L1475.67 520.395L1430.54 546.4ZM1475.67 468.397L1430.54 442.405L1430.55 390.407L1475.68 364.402L1520.8 390.395L1520.8 442.395L1475.67 468.397ZM1385.4 468.397L1340.27 442.405L1340.28 390.407L1385.41 364.402L1430.54 390.395L1430.53 442.395L1385.4 468.397Z" stroke="#00B3AA" stroke-width="3.11258"/>
<path d="M1430.54 1013.46L1385.41 987.465L1385.42 935.465L1430.55 909.46L1475.68 935.455L1475.67 987.456L1430.54 1013.46ZM1430.54 1168.92L1385.41 1142.92L1385.42 1090.92L1430.55 1064.92L1475.68 1090.91L1475.67 1142.91L1430.54 1168.92ZM1475.67 1090.91L1430.54 1064.92L1430.55 1012.92L1475.68 986.919L1520.8 1012.91L1520.8 1064.91L1475.67 1090.91ZM1385.4 1090.91L1340.27 1064.92L1340.28 1012.92L1385.41 986.919L1430.54 1012.91L1430.53 1064.91L1385.4 1090.91Z" stroke="#00B3AA" stroke-width="3.11258"/>
<path d="M1341.84 -77.2138L1296.71 -103.206L1296.72 -155.207L1341.85 -181.212L1386.98 -155.216L1386.97 -103.216L1341.84 -77.2138ZM1341.84 78.2445L1296.71 52.252L1296.72 0.251367L1341.85 -25.7505L1386.98 0.242044L1386.97 52.2395L1341.84 78.2445ZM1386.96 0.242044L1341.84 -25.7505L1341.84 -77.748L1386.98 -103.753L1432.1 -77.7604L1432.1 -25.7598L1386.96 0.242044ZM1296.7 0.242044L1251.57 -25.7505L1251.58 -77.748L1296.71 -103.753L1341.84 -77.7604L1341.83 -25.7598L1296.7 0.242044Z" stroke="#00B3AA" stroke-width="3.11258"/>
<path d="M1341.84 545.303L1296.71 519.31L1296.72 467.31L1341.85 441.305L1386.98 467.3L1386.97 519.301L1341.84 545.303ZM1341.84 700.761L1296.71 674.769L1296.72 622.768L1341.85 596.766L1386.98 622.759L1386.97 674.756L1341.84 700.761ZM1386.96 622.759L1341.84 596.766L1341.84 544.769L1386.98 518.764L1432.1 544.756L1432.1 596.757L1386.96 622.759ZM1296.7 622.759L1251.57 596.766L1251.58 544.769L1296.71 518.764L1341.84 544.756L1341.83 596.757L1296.7 622.759Z" stroke="#00B3AA" stroke-width="3.11258"/>
<path d="M1341.84 234.045L1296.71 208.052L1296.72 156.051L1341.85 130.047L1386.98 156.042L1386.97 208.043L1341.84 234.045ZM1341.84 389.503L1296.71 363.51L1296.72 311.51L1341.85 285.508L1386.98 311.5L1386.97 363.498L1341.84 389.503ZM1386.96 311.5L1341.84 285.508L1341.84 233.51L1386.98 207.505L1432.1 233.498L1432.1 285.499L1386.96 311.5ZM1296.7 311.5L1251.57 285.508L1251.58 233.51L1296.71 207.505L1341.84 233.498L1341.83 285.499L1296.7 311.5Z" stroke="#00B3AA" stroke-width="3.11258"/>
<path d="M1341.84 856.561L1296.71 830.569L1296.72 778.568L1341.85 752.563L1386.98 778.559L1386.97 830.559L1341.84 856.561ZM1341.84 1012.02L1296.71 986.027L1296.72 934.026L1341.85 908.024L1386.98 934.017L1386.97 986.014L1341.84 1012.02ZM1386.96 934.017L1341.84 908.024L1341.84 856.027L1386.98 830.022L1432.1 856.015L1432.1 908.015L1386.96 934.017ZM1296.7 934.017L1251.57 908.024L1251.58 856.027L1296.71 830.022L1341.84 856.015L1341.83 908.015L1296.7 934.017Z" stroke="#00B3AA" stroke-width="3.11258"/>
<path d="M1609.52 79.6829L1564.39 53.6904L1564.4 1.68977L1609.53 -24.3152L1654.66 1.68045L1654.65 53.681L1609.52 79.6829ZM1609.52 235.141L1564.39 209.149L1564.4 157.148L1609.53 131.146L1654.66 157.139L1654.65 209.136L1609.52 235.141ZM1654.65 157.139L1609.52 131.146L1609.53 79.1488L1654.66 53.1438L1699.78 79.1363L1699.78 131.137L1654.65 157.139ZM1564.38 157.139L1519.25 131.146L1519.26 79.1488L1564.39 53.1438L1609.52 79.1363L1609.51 131.137L1564.38 157.139Z" stroke="#00B3AA" stroke-width="3.11258"/>
<path d="M1609.52 702.199L1564.39 676.207L1564.4 624.206L1609.53 598.201L1654.66 624.197L1654.65 676.197L1609.52 702.199ZM1609.52 857.658L1564.39 831.665L1564.4 779.664L1609.53 753.663L1654.66 779.655L1654.65 831.653L1609.52 857.658ZM1654.65 779.655L1609.52 753.663L1609.53 701.665L1654.66 675.66L1699.78 701.653L1699.78 753.653L1654.65 779.655ZM1564.38 779.655L1519.25 753.663L1519.26 701.665L1564.39 675.66L1609.52 701.653L1609.51 753.653L1564.38 779.655Z" stroke="#00B3AA" stroke-width="3.11258"/>
<path d="M1609.52 390.941L1564.39 364.949L1564.4 312.948L1609.53 286.943L1654.66 312.939L1654.65 364.939L1609.52 390.941ZM1609.52 546.4L1564.39 520.407L1564.4 468.406L1609.53 442.405L1654.66 468.397L1654.65 520.395L1609.52 546.4ZM1654.65 468.397L1609.52 442.405L1609.53 390.407L1654.66 364.402L1699.78 390.395L1699.78 442.395L1654.65 468.397ZM1564.38 468.397L1519.25 442.405L1519.26 390.407L1564.39 364.402L1609.52 390.395L1609.51 442.395L1564.38 468.397Z" stroke="#00B3AA" stroke-width="3.11258"/>
<path d="M1609.52 1013.46L1564.39 987.465L1564.4 935.465L1609.53 909.46L1654.66 935.455L1654.65 987.456L1609.52 1013.46ZM1609.52 1168.92L1564.39 1142.92L1564.4 1090.92L1609.53 1064.92L1654.66 1090.91L1654.65 1142.91L1609.52 1168.92ZM1654.65 1090.91L1609.52 1064.92L1609.53 1012.92L1654.66 986.919L1699.78 1012.91L1699.78 1064.91L1654.65 1090.91ZM1564.38 1090.91L1519.25 1064.92L1519.26 1012.92L1564.39 986.919L1609.52 1012.91L1609.51 1064.91L1564.38 1090.91Z" stroke="#00B3AA" stroke-width="3.11258"/>
<path d="M1520.82 -77.2138L1475.69 -103.206L1475.7 -155.207L1520.83 -181.212L1565.96 -155.216L1565.95 -103.216L1520.82 -77.2138ZM1520.82 78.2445L1475.69 52.252L1475.7 0.251367L1520.83 -25.7505L1565.96 0.242044L1565.95 52.2395L1520.82 78.2445ZM1565.94 0.242044L1520.82 -25.7505L1520.82 -77.748L1565.96 -103.753L1611.08 -77.7604L1611.08 -25.7598L1565.94 0.242044ZM1475.68 0.242044L1430.55 -25.7505L1430.56 -77.748L1475.69 -103.753L1520.82 -77.7604L1520.81 -25.7598L1475.68 0.242044Z" stroke="#00B3AA" stroke-width="3.11258"/>
<path d="M1520.82 545.303L1475.69 519.31L1475.7 467.31L1520.83 441.305L1565.96 467.3L1565.95 519.301L1520.82 545.303ZM1520.82 700.761L1475.69 674.769L1475.7 622.768L1520.83 596.766L1565.96 622.759L1565.95 674.756L1520.82 700.761ZM1565.94 622.759L1520.82 596.766L1520.82 544.769L1565.96 518.764L1611.08 544.756L1611.08 596.757L1565.94 622.759ZM1475.68 622.759L1430.55 596.766L1430.56 544.769L1475.69 518.764L1520.82 544.756L1520.81 596.757L1475.68 622.759Z" stroke="#00B3AA" stroke-width="3.11258"/>
<path d="M1520.82 234.045L1475.69 208.052L1475.7 156.051L1520.83 130.047L1565.96 156.042L1565.95 208.043L1520.82 234.045ZM1520.82 389.503L1475.69 363.51L1475.7 311.51L1520.83 285.508L1565.96 311.5L1565.95 363.498L1520.82 389.503ZM1565.94 311.5L1520.82 285.508L1520.82 233.51L1565.96 207.505L1611.08 233.498L1611.08 285.499L1565.94 311.5ZM1475.68 311.5L1430.55 285.508L1430.56 233.51L1475.69 207.505L1520.82 233.498L1520.81 285.499L1475.68 311.5Z" stroke="#00B3AA" stroke-width="3.11258"/>
<path d="M1520.82 856.561L1475.69 830.569L1475.7 778.568L1520.83 752.563L1565.96 778.559L1565.95 830.559L1520.82 856.561ZM1520.82 1012.02L1475.69 986.027L1475.7 934.026L1520.83 908.024L1565.96 934.017L1565.95 986.014L1520.82 1012.02ZM1565.94 934.017L1520.82 908.024L1520.82 856.027L1565.96 830.022L1611.08 856.015L1611.08 908.015L1565.94 934.017ZM1475.68 934.017L1430.55 908.024L1430.56 856.027L1475.69 830.022L1520.82 856.015L1520.81 908.015L1475.68 934.017Z" stroke="#00B3AA" stroke-width="3.11258"/>
<path d="M1788.5 79.6829L1743.37 53.6904L1743.38 1.68977L1788.51 -24.3152L1833.64 1.68045L1833.63 53.681L1788.5 79.6829ZM1788.5 235.141L1743.37 209.149L1743.38 157.148L1788.51 131.146L1833.64 157.139L1833.63 209.136L1788.5 235.141ZM1833.62 157.139L1788.5 131.146L1788.5 79.1488L1833.64 53.1438L1878.76 79.1363L1878.76 131.137L1833.62 157.139ZM1743.36 157.139L1698.23 131.146L1698.24 79.1488L1743.37 53.1438L1788.5 79.1363L1788.49 131.137L1743.36 157.139Z" stroke="#00B3AA" stroke-width="3.11258"/>
<path d="M1788.5 702.199L1743.37 676.207L1743.38 624.206L1788.51 598.201L1833.64 624.197L1833.63 676.197L1788.5 702.199ZM1788.5 857.658L1743.37 831.665L1743.38 779.664L1788.51 753.663L1833.64 779.655L1833.63 831.653L1788.5 857.658ZM1833.62 779.655L1788.5 753.663L1788.5 701.665L1833.64 675.66L1878.76 701.653L1878.76 753.653L1833.62 779.655ZM1743.36 779.655L1698.23 753.663L1698.24 701.665L1743.37 675.66L1788.5 701.653L1788.49 753.653L1743.36 779.655Z" stroke="#00B3AA" stroke-width="3.11258"/>
<path d="M1788.5 390.941L1743.37 364.949L1743.38 312.948L1788.51 286.943L1833.64 312.939L1833.63 364.939L1788.5 390.941ZM1788.5 546.4L1743.37 520.407L1743.38 468.406L1788.51 442.405L1833.64 468.397L1833.63 520.395L1788.5 546.4ZM1833.62 468.397L1788.5 442.405L1788.5 390.407L1833.64 364.402L1878.76 390.395L1878.76 442.395L1833.62 468.397ZM1743.36 468.397L1698.23 442.405L1698.24 390.407L1743.37 364.402L1788.5 390.395L1788.49 442.395L1743.36 468.397Z" stroke="#00B3AA" stroke-width="3.11258"/>
<path d="M1788.5 1013.46L1743.37 987.465L1743.38 935.465L1788.51 909.46L1833.64 935.455L1833.63 987.456L1788.5 1013.46ZM1788.5 1168.92L1743.37 1142.92L1743.38 1090.92L1788.51 1064.92L1833.64 1090.91L1833.63 1142.91L1788.5 1168.92ZM1833.62 1090.91L1788.5 1064.92L1788.5 1012.92L1833.64 986.919L1878.76 1012.91L1878.76 1064.91L1833.62 1090.91ZM1743.36 1090.91L1698.23 1064.92L1698.24 1012.92L1743.37 986.919L1788.5 1012.91L1788.49 1064.91L1743.36 1090.91Z" stroke="#00B3AA" stroke-width="3.11258"/>
<path d="M1699.8 -77.2138L1654.67 -103.206L1654.68 -155.207L1699.81 -181.212L1744.93 -155.216L1744.93 -103.216L1699.8 -77.2138ZM1699.8 78.2445L1654.67 52.252L1654.68 0.251367L1699.81 -25.7505L1744.93 0.242044L1744.93 52.2395L1699.8 78.2445ZM1744.92 0.242044L1699.8 -25.7505L1699.8 -77.748L1744.93 -103.753L1790.06 -77.7604L1790.05 -25.7598L1744.92 0.242044ZM1654.66 0.242044L1609.53 -25.7505L1609.54 -77.748L1654.67 -103.753L1699.8 -77.7604L1699.79 -25.7598L1654.66 0.242044Z" stroke="#00B3AA" stroke-width="3.11258"/>
<path d="M1699.8 545.303L1654.67 519.31L1654.68 467.31L1699.81 441.305L1744.93 467.3L1744.93 519.301L1699.8 545.303ZM1699.8 700.761L1654.67 674.769L1654.68 622.768L1699.81 596.766L1744.93 622.759L1744.93 674.756L1699.8 700.761ZM1744.92 622.759L1699.8 596.766L1699.8 544.769L1744.93 518.764L1790.06 544.756L1790.05 596.757L1744.92 622.759ZM1654.66 622.759L1609.53 596.766L1609.54 544.769L1654.67 518.764L1699.8 544.756L1699.79 596.757L1654.66 622.759Z" stroke="#00B3AA" stroke-width="3.11258"/>
<path d="M1699.8 234.045L1654.67 208.052L1654.68 156.051L1699.81 130.047L1744.93 156.042L1744.93 208.043L1699.8 234.045ZM1699.8 389.503L1654.67 363.51L1654.68 311.51L1699.81 285.508L1744.93 311.5L1744.93 363.498L1699.8 389.503ZM1744.92 311.5L1699.8 285.508L1699.8 233.51L1744.93 207.505L1790.06 233.498L1790.05 285.499L1744.92 311.5ZM1654.66 311.5L1609.53 285.508L1609.54 233.51L1654.67 207.505L1699.8 233.498L1699.79 285.499L1654.66 311.5Z" stroke="#00B3AA" stroke-width="3.11258"/>
<path d="M1699.8 856.561L1654.67 830.569L1654.68 778.568L1699.81 752.563L1744.93 778.559L1744.93 830.559L1699.8 856.561ZM1699.8 1012.02L1654.67 986.027L1654.68 934.026L1699.81 908.024L1744.93 934.017L1744.93 986.014L1699.8 1012.02ZM1744.92 934.017L1699.8 908.024L1699.8 856.027L1744.93 830.022L1790.06 856.015L1790.05 908.015L1744.92 934.017ZM1654.66 934.017L1609.53 908.024L1609.54 856.027L1654.67 830.022L1699.8 856.015L1699.79 908.015L1654.66 934.017Z" stroke="#00B3AA" stroke-width="3.11258"/>
</g>
</g>
<g clip-path="url(#clip1_19_785)">
<mask id="mask1_19_785" style="mask-type:alpha" maskUnits="userSpaceOnUse" x="1611" y="-673" width="1880" height="1582">
<rect x="1611" y="-673" width="1880" height="1581.19" fill="url(#paint1_linear_19_785)"/>
</mask>
<g mask="url(#mask1_19_785)">
<path d="M1699.7 79.6829L1654.58 53.6904L1654.58 1.68977L1699.71 -24.3152L1744.84 1.68045L1744.83 53.681L1699.7 79.6829ZM1699.7 235.141L1654.58 209.149L1654.58 157.148L1699.71 131.146L1744.84 157.139L1744.83 209.136L1699.7 235.141ZM1744.83 157.139L1699.7 131.146L1699.71 79.1488L1744.84 53.1438L1789.97 79.1363L1789.96 131.137L1744.83 157.139ZM1654.56 157.139L1609.44 131.146L1609.44 79.1488L1654.58 53.1438L1699.7 79.1363L1699.7 131.137L1654.56 157.139Z" stroke="#00B3AA" stroke-width="3.11258"/>
<path d="M1699.7 702.199L1654.58 676.207L1654.58 624.206L1699.71 598.201L1744.84 624.197L1744.83 676.197L1699.7 702.199ZM1699.7 857.658L1654.58 831.665L1654.58 779.664L1699.71 753.663L1744.84 779.655L1744.83 831.653L1699.7 857.658ZM1744.83 779.655L1699.7 753.663L1699.71 701.665L1744.84 675.66L1789.97 701.653L1789.96 753.653L1744.83 779.655ZM1654.56 779.655L1609.44 753.663L1609.44 701.665L1654.58 675.66L1699.7 701.653L1699.7 753.653L1654.56 779.655Z" stroke="#00B3AA" stroke-width="3.11258"/>
<path d="M1699.7 390.941L1654.58 364.949L1654.58 312.948L1699.71 286.943L1744.84 312.939L1744.83 364.939L1699.7 390.941ZM1699.7 546.4L1654.58 520.407L1654.58 468.406L1699.71 442.405L1744.84 468.397L1744.83 520.395L1699.7 546.4ZM1744.83 468.397L1699.7 442.405L1699.71 390.407L1744.84 364.402L1789.97 390.395L1789.96 442.395L1744.83 468.397ZM1654.56 468.397L1609.44 442.405L1609.44 390.407L1654.58 364.402L1699.7 390.395L1699.7 442.395L1654.56 468.397Z" stroke="#00B3AA" stroke-width="3.11258"/>
<path d="M1699.7 1013.46L1654.58 987.465L1654.58 935.465L1699.71 909.46L1744.84 935.455L1744.83 987.456L1699.7 1013.46ZM1699.7 1168.92L1654.58 1142.92L1654.58 1090.92L1699.71 1064.92L1744.84 1090.91L1744.83 1142.91L1699.7 1168.92ZM1744.83 1090.91L1699.7 1064.92L1699.71 1012.92L1744.84 986.919L1789.97 1012.91L1789.96 1064.91L1744.83 1090.91ZM1654.56 1090.91L1609.44 1064.92L1609.44 1012.92L1654.58 986.919L1699.7 1012.91L1699.7 1064.91L1654.56 1090.91Z" stroke="#00B3AA" stroke-width="3.11258"/>
<path d="M1611 -77.2138L1565.87 -103.206L1565.88 -155.207L1611.01 -181.212L1656.14 -155.216L1656.13 -103.216L1611 -77.2138ZM1611 78.2445L1565.87 52.252L1565.88 0.251367L1611.01 -25.7505L1656.14 0.242044L1656.13 52.2395L1611 78.2445ZM1656.13 0.242044L1611 -25.7505L1611.01 -77.748L1656.14 -103.753L1701.26 -77.7604L1701.26 -25.7598L1656.13 0.242044ZM1565.86 0.242044L1520.74 -25.7505L1520.74 -77.748L1565.87 -103.753L1611 -77.7604L1610.99 -25.7598L1565.86 0.242044Z" stroke="#00B3AA" stroke-width="3.11258"/>
<path d="M1611 545.303L1565.87 519.31L1565.88 467.31L1611.01 441.305L1656.14 467.3L1656.13 519.301L1611 545.303ZM1611 700.761L1565.87 674.769L1565.88 622.768L1611.01 596.766L1656.14 622.759L1656.13 674.756L1611 700.761ZM1656.13 622.759L1611 596.766L1611.01 544.769L1656.14 518.764L1701.26 544.756L1701.26 596.757L1656.13 622.759ZM1565.86 622.759L1520.74 596.766L1520.74 544.769L1565.87 518.764L1611 544.756L1610.99 596.757L1565.86 622.759Z" stroke="#00B3AA" stroke-width="3.11258"/>
<path d="M1611 234.045L1565.87 208.052L1565.88 156.051L1611.01 130.047L1656.14 156.042L1656.13 208.043L1611 234.045ZM1611 389.503L1565.87 363.51L1565.88 311.51L1611.01 285.508L1656.14 311.5L1656.13 363.498L1611 389.503ZM1656.13 311.5L1611 285.508L1611.01 233.51L1656.14 207.505L1701.26 233.498L1701.26 285.499L1656.13 311.5ZM1565.86 311.5L1520.74 285.508L1520.74 233.51L1565.87 207.505L1611 233.498L1610.99 285.499L1565.86 311.5Z" stroke="#00B3AA" stroke-width="3.11258"/>
<path d="M1611 856.561L1565.87 830.569L1565.88 778.568L1611.01 752.563L1656.14 778.559L1656.13 830.559L1611 856.561ZM1611 1012.02L1565.87 986.027L1565.88 934.026L1611.01 908.024L1656.14 934.017L1656.13 986.014L1611 1012.02ZM1656.13 934.017L1611 908.024L1611.01 856.027L1656.14 830.022L1701.26 856.015L1701.26 908.015L1656.13 934.017ZM1565.86 934.017L1520.74 908.024L1520.74 856.027L1565.87 830.022L1611 856.015L1610.99 908.015L1565.86 934.017Z" stroke="#00B3AA" stroke-width="3.11258"/>
<path d="M1878.68 79.6829L1833.56 53.6904L1833.56 1.68977L1878.69 -24.3152L1923.82 1.68045L1923.81 53.681L1878.68 79.6829ZM1878.68 235.141L1833.56 209.149L1833.56 157.148L1878.69 131.146L1923.82 157.139L1923.81 209.136L1878.68 235.141ZM1923.81 157.139L1878.68 131.146L1878.69 79.1488L1923.82 53.1438L1968.95 79.1363L1968.94 131.137L1923.81 157.139ZM1833.54 157.139L1788.42 131.146L1788.42 79.1488L1833.56 53.1438L1878.68 79.1363L1878.68 131.137L1833.54 157.139Z" stroke="#00B3AA" stroke-width="3.11258"/>
<path d="M1878.68 702.199L1833.56 676.207L1833.56 624.206L1878.69 598.201L1923.82 624.197L1923.81 676.197L1878.68 702.199ZM1878.68 857.658L1833.56 831.665L1833.56 779.664L1878.69 753.663L1923.82 779.655L1923.81 831.653L1878.68 857.658ZM1923.81 779.655L1878.68 753.663L1878.69 701.665L1923.82 675.66L1968.95 701.653L1968.94 753.653L1923.81 779.655ZM1833.54 779.655L1788.42 753.663L1788.42 701.665L1833.56 675.66L1878.68 701.653L1878.68 753.653L1833.54 779.655Z" stroke="#00B3AA" stroke-width="3.11258"/>
<path d="M1878.68 390.941L1833.56 364.949L1833.56 312.948L1878.69 286.943L1923.82 312.939L1923.81 364.939L1878.68 390.941ZM1878.68 546.4L1833.56 520.407L1833.56 468.406L1878.69 442.405L1923.82 468.397L1923.81 520.395L1878.68 546.4ZM1923.81 468.397L1878.68 442.405L1878.69 390.407L1923.82 364.402L1968.95 390.395L1968.94 442.395L1923.81 468.397ZM1833.54 468.397L1788.42 442.405L1788.42 390.407L1833.56 364.402L1878.68 390.395L1878.68 442.395L1833.54 468.397Z" stroke="#00B3AA" stroke-width="3.11258"/>
<path d="M1878.68 1013.46L1833.56 987.465L1833.56 935.465L1878.69 909.46L1923.82 935.455L1923.81 987.456L1878.68 1013.46ZM1878.68 1168.92L1833.56 1142.92L1833.56 1090.92L1878.69 1064.92L1923.82 1090.91L1923.81 1142.91L1878.68 1168.92ZM1923.81 1090.91L1878.68 1064.92L1878.69 1012.92L1923.82 986.919L1968.95 1012.91L1968.94 1064.91L1923.81 1090.91ZM1833.54 1090.91L1788.42 1064.92L1788.42 1012.92L1833.56 986.919L1878.68 1012.91L1878.68 1064.91L1833.54 1090.91Z" stroke="#00B3AA" stroke-width="3.11258"/>
<path d="M1789.98 -77.2138L1744.85 -103.206L1744.86 -155.207L1789.99 -181.212L1835.12 -155.216L1835.11 -103.216L1789.98 -77.2138ZM1789.98 78.2445L1744.85 52.252L1744.86 0.251367L1789.99 -25.7505L1835.12 0.242044L1835.11 52.2395L1789.98 78.2445ZM1835.11 0.242044L1789.98 -25.7505L1789.99 -77.748L1835.12 -103.753L1880.24 -77.7604L1880.24 -25.7598L1835.11 0.242044ZM1744.84 0.242044L1699.71 -25.7505L1699.72 -77.748L1744.85 -103.753L1789.98 -77.7604L1789.97 -25.7598L1744.84 0.242044Z" stroke="#00B3AA" stroke-width="3.11258"/>
<path d="M1789.98 545.303L1744.85 519.31L1744.86 467.31L1789.99 441.305L1835.12 467.3L1835.11 519.301L1789.98 545.303ZM1789.98 700.761L1744.85 674.769L1744.86 622.768L1789.99 596.766L1835.12 622.759L1835.11 674.756L1789.98 700.761ZM1835.11 622.759L1789.98 596.766L1789.99 544.769L1835.12 518.764L1880.24 544.756L1880.24 596.757L1835.11 622.759ZM1744.84 622.759L1699.71 596.766L1699.72 544.769L1744.85 518.764L1789.98 544.756L1789.97 596.757L1744.84 622.759Z" stroke="#00B3AA" stroke-width="3.11258"/>
<path d="M1789.98 234.045L1744.85 208.052L1744.86 156.051L1789.99 130.047L1835.12 156.042L1835.11 208.043L1789.98 234.045ZM1789.98 389.503L1744.85 363.51L1744.86 311.51L1789.99 285.508L1835.12 311.5L1835.11 363.498L1789.98 389.503ZM1835.11 311.5L1789.98 285.508L1789.99 233.51L1835.12 207.505L1880.24 233.498L1880.24 285.499L1835.11 311.5ZM1744.84 311.5L1699.71 285.508L1699.72 233.51L1744.85 207.505L1789.98 233.498L1789.97 285.499L1744.84 311.5Z" stroke="#00B3AA" stroke-width="3.11258"/>
<path d="M1789.98 856.561L1744.85 830.569L1744.86 778.568L1789.99 752.563L1835.12 778.559L1835.11 830.559L1789.98 856.561ZM1789.98 1012.02L1744.85 986.027L1744.86 934.026L1789.99 908.024L1835.12 934.017L1835.11 986.014L1789.98 1012.02ZM1835.11 934.017L1789.98 908.024L1789.99 856.027L1835.12 830.022L1880.24 856.015L1880.24 908.015L1835.11 934.017ZM1744.84 934.017L1699.71 908.024L1699.72 856.027L1744.85 830.022L1789.98 856.015L1789.97 908.015L1744.84 934.017Z" stroke="#00B3AA" stroke-width="3.11258"/>
<path d="M2057.66 79.6829L2012.54 53.6904L2012.54 1.68977L2057.67 -24.3152L2102.8 1.68045L2102.79 53.681L2057.66 79.6829ZM2057.66 235.141L2012.54 209.149L2012.54 157.148L2057.67 131.146L2102.8 157.139L2102.79 209.136L2057.66 235.141ZM2102.79 157.139L2057.66 131.146L2057.67 79.1488L2102.8 53.1438L2147.93 79.1363L2147.92 131.137L2102.79 157.139ZM2012.52 157.139L1967.4 131.146L1967.4 79.1488L2012.54 53.1438L2057.66 79.1363L2057.66 131.137L2012.52 157.139Z" stroke="#00B3AA" stroke-width="3.11258"/>
<path d="M2057.66 702.199L2012.54 676.207L2012.54 624.206L2057.67 598.201L2102.8 624.197L2102.79 676.197L2057.66 702.199ZM2057.66 857.658L2012.54 831.665L2012.54 779.664L2057.67 753.663L2102.8 779.655L2102.79 831.653L2057.66 857.658ZM2102.79 779.655L2057.66 753.663L2057.67 701.665L2102.8 675.66L2147.93 701.653L2147.92 753.653L2102.79 779.655ZM2012.52 779.655L1967.4 753.663L1967.4 701.665L2012.54 675.66L2057.66 701.653L2057.66 753.653L2012.52 779.655Z" stroke="#00B3AA" stroke-width="3.11258"/>
<path d="M2057.66 390.941L2012.54 364.949L2012.54 312.948L2057.67 286.943L2102.8 312.939L2102.79 364.939L2057.66 390.941ZM2057.66 546.4L2012.54 520.407L2012.54 468.406L2057.67 442.405L2102.8 468.397L2102.79 520.395L2057.66 546.4ZM2102.79 468.397L2057.66 442.405L2057.67 390.407L2102.8 364.402L2147.93 390.395L2147.92 442.395L2102.79 468.397ZM2012.52 468.397L1967.4 442.405L1967.4 390.407L2012.54 364.402L2057.66 390.395L2057.66 442.395L2012.52 468.397Z" stroke="#00B3AA" stroke-width="3.11258"/>
<path d="M2057.66 1013.46L2012.54 987.465L2012.54 935.465L2057.67 909.46L2102.8 935.455L2102.79 987.456L2057.66 1013.46ZM2057.66 1168.92L2012.54 1142.92L2012.54 1090.92L2057.67 1064.92L2102.8 1090.91L2102.79 1142.91L2057.66 1168.92ZM2102.79 1090.91L2057.66 1064.92L2057.67 1012.92L2102.8 986.919L2147.93 1012.91L2147.92 1064.91L2102.79 1090.91ZM2012.52 1090.91L1967.4 1064.92L1967.4 1012.92L2012.54 986.919L2057.66 1012.91L2057.66 1064.91L2012.52 1090.91Z" stroke="#00B3AA" stroke-width="3.11258"/>
<path d="M1968.96 -77.2138L1923.83 -103.206L1923.84 -155.207L1968.97 -181.212L2014.1 -155.216L2014.09 -103.216L1968.96 -77.2138ZM1968.96 78.2445L1923.83 52.252L1923.84 0.251367L1968.97 -25.7505L2014.1 0.242044L2014.09 52.2395L1968.96 78.2445ZM2014.09 0.242044L1968.96 -25.7505L1968.97 -77.748L2014.1 -103.753L2059.22 -77.7604L2059.22 -25.7598L2014.09 0.242044ZM1923.82 0.242044L1878.69 -25.7505L1878.7 -77.748L1923.83 -103.753L1968.96 -77.7604L1968.95 -25.7598L1923.82 0.242044Z" stroke="#00B3AA" stroke-width="3.11258"/>
<path d="M1968.96 545.303L1923.83 519.31L1923.84 467.31L1968.97 441.305L2014.1 467.3L2014.09 519.301L1968.96 545.303ZM1968.96 700.761L1923.83 674.769L1923.84 622.768L1968.97 596.766L2014.1 622.759L2014.09 674.756L1968.96 700.761ZM2014.09 622.759L1968.96 596.766L1968.97 544.769L2014.1 518.764L2059.22 544.756L2059.22 596.757L2014.09 622.759ZM1923.82 622.759L1878.69 596.766L1878.7 544.769L1923.83 518.764L1968.96 544.756L1968.95 596.757L1923.82 622.759Z" stroke="#00B3AA" stroke-width="3.11258"/>
<path d="M1968.96 234.045L1923.83 208.052L1923.84 156.051L1968.97 130.047L2014.1 156.042L2014.09 208.043L1968.96 234.045ZM1968.96 389.503L1923.83 363.51L1923.84 311.51L1968.97 285.508L2014.1 311.5L2014.09 363.498L1968.96 389.503ZM2014.09 311.5L1968.96 285.508L1968.97 233.51L2014.1 207.505L2059.22 233.498L2059.22 285.499L2014.09 311.5ZM1923.82 311.5L1878.69 285.508L1878.7 233.51L1923.83 207.505L1968.96 233.498L1968.95 285.499L1923.82 311.5Z" stroke="#00B3AA" stroke-width="3.11258"/>
<path d="M1968.96 856.561L1923.83 830.569L1923.84 778.568L1968.97 752.563L2014.1 778.559L2014.09 830.559L1968.96 856.561ZM1968.96 1012.02L1923.83 986.027L1923.84 934.026L1968.97 908.024L2014.1 934.017L2014.09 986.014L1968.96 1012.02ZM2014.09 934.017L1968.96 908.024L1968.97 856.027L2014.1 830.022L2059.22 856.015L2059.22 908.015L2014.09 934.017ZM1923.82 934.017L1878.69 908.024L1878.7 856.027L1923.83 830.022L1968.96 856.015L1968.95 908.015L1923.82 934.017Z" stroke="#00B3AA" stroke-width="3.11258"/>
<path d="M2236.64 79.6829L2191.52 53.6904L2191.52 1.68977L2236.65 -24.3152L2281.78 1.68045L2281.77 53.681L2236.64 79.6829ZM2236.64 235.141L2191.52 209.149L2191.52 157.148L2236.65 131.146L2281.78 157.139L2281.77 209.136L2236.64 235.141ZM2281.77 157.139L2236.64 131.146L2236.65 79.1488L2281.78 53.1438L2326.91 79.1363L2326.9 131.137L2281.77 157.139ZM2191.5 157.139L2146.38 131.146L2146.38 79.1488L2191.52 53.1438L2236.64 79.1363L2236.64 131.137L2191.5 157.139Z" stroke="#00B3AA" stroke-width="3.11258"/>
<path d="M2236.64 702.199L2191.52 676.207L2191.52 624.206L2236.65 598.201L2281.78 624.197L2281.77 676.197L2236.64 702.199ZM2236.64 857.658L2191.52 831.665L2191.52 779.664L2236.65 753.663L2281.78 779.655L2281.77 831.653L2236.64 857.658ZM2281.77 779.655L2236.64 753.663L2236.65 701.665L2281.78 675.66L2326.91 701.653L2326.9 753.653L2281.77 779.655ZM2191.5 779.655L2146.38 753.663L2146.38 701.665L2191.52 675.66L2236.64 701.653L2236.64 753.653L2191.5 779.655Z" stroke="#00B3AA" stroke-width="3.11258"/>
<path d="M2236.64 390.941L2191.52 364.949L2191.52 312.948L2236.65 286.943L2281.78 312.939L2281.77 364.939L2236.64 390.941ZM2236.64 546.4L2191.52 520.407L2191.52 468.406L2236.65 442.405L2281.78 468.397L2281.77 520.395L2236.64 546.4ZM2281.77 468.397L2236.64 442.405L2236.65 390.407L2281.78 364.402L2326.91 390.395L2326.9 442.395L2281.77 468.397ZM2191.5 468.397L2146.38 442.405L2146.38 390.407L2191.52 364.402L2236.64 390.395L2236.64 442.395L2191.5 468.397Z" stroke="#00B3AA" stroke-width="3.11258"/>
<path d="M2236.64 1013.46L2191.52 987.465L2191.52 935.465L2236.65 909.46L2281.78 935.455L2281.77 987.456L2236.64 1013.46ZM2236.64 1168.92L2191.52 1142.92L2191.52 1090.92L2236.65 1064.92L2281.78 1090.91L2281.77 1142.91L2236.64 1168.92ZM2281.77 1090.91L2236.64 1064.92L2236.65 1012.92L2281.78 986.919L2326.91 1012.91L2326.9 1064.91L2281.77 1090.91ZM2191.5 1090.91L2146.38 1064.92L2146.38 1012.92L2191.52 986.919L2236.64 1012.91L2236.64 1064.91L2191.5 1090.91Z" stroke="#00B3AA" stroke-width="3.11258"/>
<path d="M2147.94 -77.2138L2102.81 -103.206L2102.82 -155.207L2147.95 -181.212L2193.08 -155.216L2193.07 -103.216L2147.94 -77.2138ZM2147.94 78.2445L2102.81 52.252L2102.82 0.251367L2147.95 -25.7505L2193.08 0.242044L2193.07 52.2395L2147.94 78.2445ZM2193.06 0.242044L2147.94 -25.7505L2147.94 -77.748L2193.08 -103.753L2238.2 -77.7604L2238.2 -25.7598L2193.06 0.242044ZM2102.8 0.242044L2057.67 -25.7505L2057.68 -77.748L2102.81 -103.753L2147.94 -77.7604L2147.93 -25.7598L2102.8 0.242044Z" stroke="#00B3AA" stroke-width="3.11258"/>
<path d="M2147.94 545.303L2102.81 519.31L2102.82 467.31L2147.95 441.305L2193.08 467.3L2193.07 519.301L2147.94 545.303ZM2147.94 700.761L2102.81 674.769L2102.82 622.768L2147.95 596.766L2193.08 622.759L2193.07 674.756L2147.94 700.761ZM2193.06 622.759L2147.94 596.766L2147.94 544.769L2193.08 518.764L2238.2 544.756L2238.2 596.757L2193.06 622.759ZM2102.8 622.759L2057.67 596.766L2057.68 544.769L2102.81 518.764L2147.94 544.756L2147.93 596.757L2102.8 622.759Z" stroke="#00B3AA" stroke-width="3.11258"/>
<path d="M2147.94 234.045L2102.81 208.052L2102.82 156.051L2147.95 130.047L2193.08 156.042L2193.07 208.043L2147.94 234.045ZM2147.94 389.503L2102.81 363.51L2102.82 311.51L2147.95 285.508L2193.08 311.5L2193.07 363.498L2147.94 389.503ZM2193.06 311.5L2147.94 285.508L2147.94 233.51L2193.08 207.505L2238.2 233.498L2238.2 285.499L2193.06 311.5ZM2102.8 311.5L2057.67 285.508L2057.68 233.51L2102.81 207.505L2147.94 233.498L2147.93 285.499L2102.8 311.5Z" stroke="#00B3AA" stroke-width="3.11258"/>
<path d="M2147.94 856.561L2102.81 830.569L2102.82 778.568L2147.95 752.563L2193.08 778.559L2193.07 830.559L2147.94 856.561ZM2147.94 1012.02L2102.81 986.027L2102.82 934.026L2147.95 908.024L2193.08 934.017L2193.07 986.014L2147.94 1012.02ZM2193.06 934.017L2147.94 908.024L2147.94 856.027L2193.08 830.022L2238.2 856.015L2238.2 908.015L2193.06 934.017ZM2102.8 934.017L2057.67 908.024L2057.68 856.027L2102.81 830.022L2147.94 856.015L2147.93 908.015L2102.8 934.017Z" stroke="#00B3AA" stroke-width="3.11258"/>
<path d="M2415.62 79.6829L2370.49 53.6904L2370.5 1.68977L2415.63 -24.3152L2460.76 1.68045L2460.75 53.681L2415.62 79.6829ZM2415.62 235.141L2370.49 209.149L2370.5 157.148L2415.63 131.146L2460.76 157.139L2460.75 209.136L2415.62 235.141ZM2460.75 157.139L2415.62 131.146L2415.63 79.1488L2460.76 53.1438L2505.89 79.1363L2505.88 131.137L2460.75 157.139ZM2370.48 157.139L2325.36 131.146L2325.36 79.1488L2370.49 53.1438L2415.62 79.1363L2415.61 131.137L2370.48 157.139Z" stroke="#00B3AA" stroke-width="3.11258"/>
<path d="M2415.62 702.199L2370.49 676.207L2370.5 624.206L2415.63 598.201L2460.76 624.197L2460.75 676.197L2415.62 702.199ZM2415.62 857.658L2370.49 831.665L2370.5 779.664L2415.63 753.663L2460.76 779.655L2460.75 831.653L2415.62 857.658ZM2460.75 779.655L2415.62 753.663L2415.63 701.665L2460.76 675.66L2505.89 701.653L2505.88 753.653L2460.75 779.655ZM2370.48 779.655L2325.36 753.663L2325.36 701.665L2370.49 675.66L2415.62 701.653L2415.61 753.653L2370.48 779.655Z" stroke="#00B3AA" stroke-width="3.11258"/>
<path d="M2415.62 390.941L2370.49 364.949L2370.5 312.948L2415.63 286.943L2460.76 312.939L2460.75 364.939L2415.62 390.941ZM2415.62 546.4L2370.49 520.407L2370.5 468.406L2415.63 442.405L2460.76 468.397L2460.75 520.395L2415.62 546.4ZM2460.75 468.397L2415.62 442.405L2415.63 390.407L2460.76 364.402L2505.89 390.395L2505.88 442.395L2460.75 468.397ZM2370.48 468.397L2325.36 442.405L2325.36 390.407L2370.49 364.402L2415.62 390.395L2415.61 442.395L2370.48 468.397Z" stroke="#00B3AA" stroke-width="3.11258"/>
<path d="M2415.62 1013.46L2370.49 987.465L2370.5 935.465L2415.63 909.46L2460.76 935.455L2460.75 987.456L2415.62 1013.46ZM2415.62 1168.92L2370.49 1142.92L2370.5 1090.92L2415.63 1064.92L2460.76 1090.91L2460.75 1142.91L2415.62 1168.92ZM2460.75 1090.91L2415.62 1064.92L2415.63 1012.92L2460.76 986.919L2505.89 1012.91L2505.88 1064.91L2460.75 1090.91ZM2370.48 1090.91L2325.36 1064.92L2325.36 1012.92L2370.49 986.919L2415.62 1012.91L2415.61 1064.91L2370.48 1090.91Z" stroke="#00B3AA" stroke-width="3.11258"/>
<path d="M2326.92 -77.2138L2281.79 -103.206L2281.8 -155.207L2326.93 -181.212L2372.06 -155.216L2372.05 -103.216L2326.92 -77.2138ZM2326.92 78.2445L2281.79 52.252L2281.8 0.251367L2326.93 -25.7505L2372.06 0.242044L2372.05 52.2395L2326.92 78.2445ZM2372.04 0.242044L2326.92 -25.7505L2326.92 -77.748L2372.06 -103.753L2417.18 -77.7604L2417.18 -25.7598L2372.04 0.242044ZM2281.78 0.242044L2236.65 -25.7505L2236.66 -77.748L2281.79 -103.753L2326.92 -77.7604L2326.91 -25.7598L2281.78 0.242044Z" stroke="#00B3AA" stroke-width="3.11258"/>
<path d="M2326.92 545.303L2281.79 519.31L2281.8 467.31L2326.93 441.305L2372.06 467.3L2372.05 519.301L2326.92 545.303ZM2326.92 700.761L2281.79 674.769L2281.8 622.768L2326.93 596.766L2372.06 622.759L2372.05 674.756L2326.92 700.761ZM2372.04 622.759L2326.92 596.766L2326.92 544.769L2372.06 518.764L2417.18 544.756L2417.18 596.757L2372.04 622.759ZM2281.78 622.759L2236.65 596.766L2236.66 544.769L2281.79 518.764L2326.92 544.756L2326.91 596.757L2281.78 622.759Z" stroke="#00B3AA" stroke-width="3.11258"/>
<path d="M2326.92 234.045L2281.79 208.052L2281.8 156.051L2326.93 130.047L2372.06 156.042L2372.05 208.043L2326.92 234.045ZM2326.92 389.503L2281.79 363.51L2281.8 311.51L2326.93 285.508L2372.06 311.5L2372.05 363.498L2326.92 389.503ZM2372.04 311.5L2326.92 285.508L2326.92 233.51L2372.06 207.505L2417.18 233.498L2417.18 285.499L2372.04 311.5ZM2281.78 311.5L2236.65 285.508L2236.66 233.51L2281.79 207.505L2326.92 233.498L2326.91 285.499L2281.78 311.5Z" stroke="#00B3AA" stroke-width="3.11258"/>
<path d="M2326.92 856.561L2281.79 830.569L2281.8 778.568L2326.93 752.563L2372.06 778.559L2372.05 830.559L2326.92 856.561ZM2326.92 1012.02L2281.79 986.027L2281.8 934.026L2326.93 908.024L2372.06 934.017L2372.05 986.014L2326.92 1012.02ZM2372.04 934.017L2326.92 908.024L2326.92 856.027L2372.06 830.022L2417.18 856.015L2417.18 908.015L2372.04 934.017ZM2281.78 934.017L2236.65 908.024L2236.66 856.027L2281.79 830.022L2326.92 856.015L2326.91 908.015L2281.78 934.017Z" stroke="#00B3AA" stroke-width="3.11258"/>
<path d="M2594.6 79.6829L2549.47 53.6904L2549.48 1.68977L2594.61 -24.3152L2639.74 1.68045L2639.73 53.681L2594.6 79.6829ZM2594.6 235.141L2549.47 209.149L2549.48 157.148L2594.61 131.146L2639.74 157.139L2639.73 209.136L2594.6 235.141ZM2639.73 157.139L2594.6 131.146L2594.61 79.1488L2639.74 53.1438L2684.87 79.1363L2684.86 131.137L2639.73 157.139ZM2549.46 157.139L2504.34 131.146L2504.34 79.1488L2549.47 53.1438L2594.6 79.1363L2594.59 131.137L2549.46 157.139Z" stroke="#00B3AA" stroke-width="3.11258"/>
<path d="M2594.6 702.199L2549.47 676.207L2549.48 624.206L2594.61 598.201L2639.74 624.197L2639.73 676.197L2594.6 702.199ZM2594.6 857.658L2549.47 831.665L2549.48 779.664L2594.61 753.663L2639.74 779.655L2639.73 831.653L2594.6 857.658ZM2639.73 779.655L2594.6 753.663L2594.61 701.665L2639.74 675.66L2684.87 701.653L2684.86 753.653L2639.73 779.655ZM2549.46 779.655L2504.34 753.663L2504.34 701.665L2549.47 675.66L2594.6 701.653L2594.59 753.653L2549.46 779.655Z" stroke="#00B3AA" stroke-width="3.11258"/>
<path d="M2594.6 390.941L2549.47 364.949L2549.48 312.948L2594.61 286.943L2639.74 312.939L2639.73 364.939L2594.6 390.941ZM2594.6 546.4L2549.47 520.407L2549.48 468.406L2594.61 442.405L2639.74 468.397L2639.73 520.395L2594.6 546.4ZM2639.73 468.397L2594.6 442.405L2594.61 390.407L2639.74 364.402L2684.87 390.395L2684.86 442.395L2639.73 468.397ZM2549.46 468.397L2504.34 442.405L2504.34 390.407L2549.47 364.402L2594.6 390.395L2594.59 442.395L2549.46 468.397Z" stroke="#00B3AA" stroke-width="3.11258"/>
<path d="M2594.6 1013.46L2549.47 987.465L2549.48 935.465L2594.61 909.46L2639.74 935.455L2639.73 987.456L2594.6 1013.46ZM2594.6 1168.92L2549.47 1142.92L2549.48 1090.92L2594.61 1064.92L2639.74 1090.91L2639.73 1142.91L2594.6 1168.92ZM2639.73 1090.91L2594.6 1064.92L2594.61 1012.92L2639.74 986.919L2684.87 1012.91L2684.86 1064.91L2639.73 1090.91ZM2549.46 1090.91L2504.34 1064.92L2504.34 1012.92L2549.47 986.919L2594.6 1012.91L2594.59 1064.91L2549.46 1090.91Z" stroke="#00B3AA" stroke-width="3.11258"/>
<path d="M2505.9 -77.2138L2460.77 -103.206L2460.78 -155.207L2505.91 -181.212L2551.04 -155.216L2551.03 -103.216L2505.9 -77.2138ZM2505.9 78.2445L2460.77 52.252L2460.78 0.251367L2505.91 -25.7505L2551.04 0.242044L2551.03 52.2395L2505.9 78.2445ZM2551.02 0.242044L2505.9 -25.7505L2505.9 -77.748L2551.04 -103.753L2596.16 -77.7604L2596.16 -25.7598L2551.02 0.242044ZM2460.76 0.242044L2415.63 -25.7505L2415.64 -77.748L2460.77 -103.753L2505.9 -77.7604L2505.89 -25.7598L2460.76 0.242044Z" stroke="#00B3AA" stroke-width="3.11258"/>
<path d="M2505.9 545.303L2460.77 519.31L2460.78 467.31L2505.91 441.305L2551.04 467.3L2551.03 519.301L2505.9 545.303ZM2505.9 700.761L2460.77 674.769L2460.78 622.768L2505.91 596.766L2551.04 622.759L2551.03 674.756L2505.9 700.761ZM2551.02 622.759L2505.9 596.766L2505.9 544.769L2551.04 518.764L2596.16 544.756L2596.16 596.757L2551.02 622.759ZM2460.76 622.759L2415.63 596.766L2415.64 544.769L2460.77 518.764L2505.9 544.756L2505.89 596.757L2460.76 622.759Z" stroke="#00B3AA" stroke-width="3.11258"/>
<path d="M2505.9 234.045L2460.77 208.052L2460.78 156.051L2505.91 130.047L2551.04 156.042L2551.03 208.043L2505.9 234.045ZM2505.9 389.503L2460.77 363.51L2460.78 311.51L2505.91 285.508L2551.04 311.5L2551.03 363.498L2505.9 389.503ZM2551.02 311.5L2505.9 285.508L2505.9 233.51L2551.04 207.505L2596.16 233.498L2596.16 285.499L2551.02 311.5ZM2460.76 311.5L2415.63 285.508L2415.64 233.51L2460.77 207.505L2505.9 233.498L2505.89 285.499L2460.76 311.5Z" stroke="#00B3AA" stroke-width="3.11258"/>
<path d="M2505.9 856.561L2460.77 830.569L2460.78 778.568L2505.91 752.563L2551.04 778.559L2551.03 830.559L2505.9 856.561ZM2505.9 1012.02L2460.77 986.027L2460.78 934.026L2505.91 908.024L2551.04 934.017L2551.03 986.014L2505.9 1012.02ZM2551.02 934.017L2505.9 908.024L2505.9 856.027L2551.04 830.022L2596.16 856.015L2596.16 908.015L2551.02 934.017ZM2460.76 934.017L2415.63 908.024L2415.64 856.027L2460.77 830.022L2505.9 856.015L2505.89 908.015L2460.76 934.017Z" stroke="#00B3AA" stroke-width="3.11258"/>
<path d="M2773.58 79.6829L2728.45 53.6904L2728.46 1.68977L2773.59 -24.3152L2818.72 1.68045L2818.71 53.681L2773.58 79.6829ZM2773.58 235.141L2728.45 209.149L2728.46 157.148L2773.59 131.146L2818.72 157.139L2818.71 209.136L2773.58 235.141ZM2818.71 157.139L2773.58 131.146L2773.59 79.1488L2818.72 53.1438L2863.85 79.1363L2863.84 131.137L2818.71 157.139ZM2728.44 157.139L2683.32 131.146L2683.32 79.1488L2728.45 53.1438L2773.58 79.1363L2773.57 131.137L2728.44 157.139Z" stroke="#00B3AA" stroke-width="3.11258"/>
<path d="M2773.58 702.199L2728.45 676.207L2728.46 624.206L2773.59 598.201L2818.72 624.197L2818.71 676.197L2773.58 702.199ZM2773.58 857.658L2728.45 831.665L2728.46 779.664L2773.59 753.663L2818.72 779.655L2818.71 831.653L2773.58 857.658ZM2818.71 779.655L2773.58 753.663L2773.59 701.665L2818.72 675.66L2863.85 701.653L2863.84 753.653L2818.71 779.655ZM2728.44 779.655L2683.32 753.663L2683.32 701.665L2728.45 675.66L2773.58 701.653L2773.57 753.653L2728.44 779.655Z" stroke="#00B3AA" stroke-width="3.11258"/>
<path d="M2773.58 390.941L2728.45 364.949L2728.46 312.948L2773.59 286.943L2818.72 312.939L2818.71 364.939L2773.58 390.941ZM2773.58 546.4L2728.45 520.407L2728.46 468.406L2773.59 442.405L2818.72 468.397L2818.71 520.395L2773.58 546.4ZM2818.71 468.397L2773.58 442.405L2773.59 390.407L2818.72 364.402L2863.85 390.395L2863.84 442.395L2818.71 468.397ZM2728.44 468.397L2683.32 442.405L2683.32 390.407L2728.45 364.402L2773.58 390.395L2773.57 442.395L2728.44 468.397Z" stroke="#00B3AA" stroke-width="3.11258"/>
<path d="M2773.58 1013.46L2728.45 987.465L2728.46 935.465L2773.59 909.46L2818.72 935.455L2818.71 987.456L2773.58 1013.46ZM2773.58 1168.92L2728.45 1142.92L2728.46 1090.92L2773.59 1064.92L2818.72 1090.91L2818.71 1142.91L2773.58 1168.92ZM2818.71 1090.91L2773.58 1064.92L2773.59 1012.92L2818.72 986.919L2863.85 1012.91L2863.84 1064.91L2818.71 1090.91ZM2728.44 1090.91L2683.32 1064.92L2683.32 1012.92L2728.45 986.919L2773.58 1012.91L2773.57 1064.91L2728.44 1090.91Z" stroke="#00B3AA" stroke-width="3.11258"/>
<path d="M2684.88 -77.2138L2639.75 -103.206L2639.76 -155.207L2684.89 -181.212L2730.02 -155.216L2730.01 -103.216L2684.88 -77.2138ZM2684.88 78.2445L2639.75 52.252L2639.76 0.251367L2684.89 -25.7505L2730.02 0.242044L2730.01 52.2395L2684.88 78.2445ZM2730 0.242044L2684.88 -25.7505L2684.88 -77.748L2730.02 -103.753L2775.14 -77.7604L2775.14 -25.7598L2730 0.242044ZM2639.74 0.242044L2594.61 -25.7505L2594.62 -77.748L2639.75 -103.753L2684.88 -77.7604L2684.87 -25.7598L2639.74 0.242044Z" stroke="#00B3AA" stroke-width="3.11258"/>
<path d="M2684.88 545.303L2639.75 519.31L2639.76 467.31L2684.89 441.305L2730.02 467.3L2730.01 519.301L2684.88 545.303ZM2684.88 700.761L2639.75 674.769L2639.76 622.768L2684.89 596.766L2730.02 622.759L2730.01 674.756L2684.88 700.761ZM2730 622.759L2684.88 596.766L2684.88 544.769L2730.02 518.764L2775.14 544.756L2775.14 596.757L2730 622.759ZM2639.74 622.759L2594.61 596.766L2594.62 544.769L2639.75 518.764L2684.88 544.756L2684.87 596.757L2639.74 622.759Z" stroke="#00B3AA" stroke-width="3.11258"/>
<path d="M2684.88 234.045L2639.75 208.052L2639.76 156.051L2684.89 130.047L2730.02 156.042L2730.01 208.043L2684.88 234.045ZM2684.88 389.503L2639.75 363.51L2639.76 311.51L2684.89 285.508L2730.02 311.5L2730.01 363.498L2684.88 389.503ZM2730 311.5L2684.88 285.508L2684.88 233.51L2730.02 207.505L2775.14 233.498L2775.14 285.499L2730 311.5ZM2639.74 311.5L2594.61 285.508L2594.62 233.51L2639.75 207.505L2684.88 233.498L2684.87 285.499L2639.74 311.5Z" stroke="#00B3AA" stroke-width="3.11258"/>
<path d="M2684.88 856.561L2639.75 830.569L2639.76 778.568L2684.89 752.563L2730.02 778.559L2730.01 830.559L2684.88 856.561ZM2684.88 1012.02L2639.75 986.027L2639.76 934.026L2684.89 908.024L2730.02 934.017L2730.01 986.014L2684.88 1012.02ZM2730 934.017L2684.88 908.024L2684.88 856.027L2730.02 830.022L2775.14 856.015L2775.14 908.015L2730 934.017ZM2639.74 934.017L2594.61 908.024L2594.62 856.027L2639.75 830.022L2684.88 856.015L2684.87 908.015L2639.74 934.017Z" stroke="#00B3AA" stroke-width="3.11258"/>
<path d="M2952.56 79.6829L2907.43 53.6904L2907.44 1.68977L2952.57 -24.3152L2997.7 1.68045L2997.69 53.681L2952.56 79.6829ZM2952.56 235.141L2907.43 209.149L2907.44 157.148L2952.57 131.146L2997.7 157.139L2997.69 209.136L2952.56 235.141ZM2997.69 157.139L2952.56 131.146L2952.57 79.1488L2997.7 53.1438L3042.82 79.1363L3042.82 131.137L2997.69 157.139ZM2907.42 157.139L2862.29 131.146L2862.3 79.1488L2907.43 53.1438L2952.56 79.1363L2952.55 131.137L2907.42 157.139Z" stroke="#00B3AA" stroke-width="3.11258"/>
<path d="M2952.56 702.199L2907.43 676.207L2907.44 624.206L2952.57 598.201L2997.7 624.197L2997.69 676.197L2952.56 702.199ZM2952.56 857.658L2907.43 831.665L2907.44 779.664L2952.57 753.663L2997.7 779.655L2997.69 831.653L2952.56 857.658ZM2997.69 779.655L2952.56 753.663L2952.57 701.665L2997.7 675.66L3042.82 701.653L3042.82 753.653L2997.69 779.655ZM2907.42 779.655L2862.29 753.663L2862.3 701.665L2907.43 675.66L2952.56 701.653L2952.55 753.653L2907.42 779.655Z" stroke="#00B3AA" stroke-width="3.11258"/>
<path d="M2952.56 390.941L2907.43 364.949L2907.44 312.948L2952.57 286.943L2997.7 312.939L2997.69 364.939L2952.56 390.941ZM2952.56 546.4L2907.43 520.407L2907.44 468.406L2952.57 442.405L2997.7 468.397L2997.69 520.395L2952.56 546.4ZM2997.69 468.397L2952.56 442.405L2952.57 390.407L2997.7 364.402L3042.82 390.395L3042.82 442.395L2997.69 468.397ZM2907.42 468.397L2862.29 442.405L2862.3 390.407L2907.43 364.402L2952.56 390.395L2952.55 442.395L2907.42 468.397Z" stroke="#00B3AA" stroke-width="3.11258"/>
<path d="M2952.56 1013.46L2907.43 987.465L2907.44 935.465L2952.57 909.46L2997.7 935.455L2997.69 987.456L2952.56 1013.46ZM2952.56 1168.92L2907.43 1142.92L2907.44 1090.92L2952.57 1064.92L2997.7 1090.91L2997.69 1142.91L2952.56 1168.92ZM2997.69 1090.91L2952.56 1064.92L2952.57 1012.92L2997.7 986.919L3042.82 1012.91L3042.82 1064.91L2997.69 1090.91ZM2907.42 1090.91L2862.29 1064.92L2862.3 1012.92L2907.43 986.919L2952.56 1012.91L2952.55 1064.91L2907.42 1090.91Z" stroke="#00B3AA" stroke-width="3.11258"/>
<path d="M2863.86 -77.2138L2818.73 -103.206L2818.74 -155.207L2863.87 -181.212L2909 -155.216L2908.99 -103.216L2863.86 -77.2138ZM2863.86 78.2445L2818.73 52.252L2818.74 0.251367L2863.87 -25.7505L2909 0.242044L2908.99 52.2395L2863.86 78.2445ZM2908.98 0.242044L2863.86 -25.7505L2863.86 -77.748L2909 -103.753L2954.12 -77.7604L2954.12 -25.7598L2908.98 0.242044ZM2818.72 0.242044L2773.59 -25.7505L2773.6 -77.748L2818.73 -103.753L2863.86 -77.7604L2863.85 -25.7598L2818.72 0.242044Z" stroke="#00B3AA" stroke-width="3.11258"/>
<path d="M2863.86 545.303L2818.73 519.31L2818.74 467.31L2863.87 441.305L2909 467.3L2908.99 519.301L2863.86 545.303ZM2863.86 700.761L2818.73 674.769L2818.74 622.768L2863.87 596.766L2909 622.759L2908.99 674.756L2863.86 700.761ZM2908.98 622.759L2863.86 596.766L2863.86 544.769L2909 518.764L2954.12 544.756L2954.12 596.757L2908.98 622.759ZM2818.72 622.759L2773.59 596.766L2773.6 544.769L2818.73 518.764L2863.86 544.756L2863.85 596.757L2818.72 622.759Z" stroke="#00B3AA" stroke-width="3.11258"/>
<path d="M2863.86 234.045L2818.73 208.052L2818.74 156.051L2863.87 130.047L2909 156.042L2908.99 208.043L2863.86 234.045ZM2863.86 389.503L2818.73 363.51L2818.74 311.51L2863.87 285.508L2909 311.5L2908.99 363.498L2863.86 389.503ZM2908.98 311.5L2863.86 285.508L2863.86 233.51L2909 207.505L2954.12 233.498L2954.12 285.499L2908.98 311.5ZM2818.72 311.5L2773.59 285.508L2773.6 233.51L2818.73 207.505L2863.86 233.498L2863.85 285.499L2818.72 311.5Z" stroke="#00B3AA" stroke-width="3.11258"/>
<path d="M2863.86 856.561L2818.73 830.569L2818.74 778.568L2863.87 752.563L2909 778.559L2908.99 830.559L2863.86 856.561ZM2863.86 1012.02L2818.73 986.027L2818.74 934.026L2863.87 908.024L2909 934.017L2908.99 986.014L2863.86 1012.02ZM2908.98 934.017L2863.86 908.024L2863.86 856.027L2909 830.022L2954.12 856.015L2954.12 908.015L2908.98 934.017ZM2818.72 934.017L2773.59 908.024L2773.6 856.027L2818.73 830.022L2863.86 856.015L2863.85 908.015L2818.72 934.017Z" stroke="#00B3AA" stroke-width="3.11258"/>
<path d="M3131.54 79.6829L3086.41 53.6904L3086.42 1.68977L3131.55 -24.3152L3176.68 1.68045L3176.67 53.681L3131.54 79.6829ZM3131.54 235.141L3086.41 209.149L3086.42 157.148L3131.55 131.146L3176.68 157.139L3176.67 209.136L3131.54 235.141ZM3176.67 157.139L3131.54 131.146L3131.55 79.1488L3176.68 53.1438L3221.8 79.1363L3221.8 131.137L3176.67 157.139ZM3086.4 157.139L3041.27 131.146L3041.28 79.1488L3086.41 53.1438L3131.54 79.1363L3131.53 131.137L3086.4 157.139Z" stroke="#00B3AA" stroke-width="3.11258"/>
<path d="M3131.54 702.199L3086.41 676.207L3086.42 624.206L3131.55 598.201L3176.68 624.197L3176.67 676.197L3131.54 702.199ZM3131.54 857.658L3086.41 831.665L3086.42 779.664L3131.55 753.663L3176.68 779.655L3176.67 831.653L3131.54 857.658ZM3176.67 779.655L3131.54 753.663L3131.55 701.665L3176.68 675.66L3221.8 701.653L3221.8 753.653L3176.67 779.655ZM3086.4 779.655L3041.27 753.663L3041.28 701.665L3086.41 675.66L3131.54 701.653L3131.53 753.653L3086.4 779.655Z" stroke="#00B3AA" stroke-width="3.11258"/>
<path d="M3131.54 390.941L3086.41 364.949L3086.42 312.948L3131.55 286.943L3176.68 312.939L3176.67 364.939L3131.54 390.941ZM3131.54 546.4L3086.41 520.407L3086.42 468.406L3131.55 442.405L3176.68 468.397L3176.67 520.395L3131.54 546.4ZM3176.67 468.397L3131.54 442.405L3131.55 390.407L3176.68 364.402L3221.8 390.395L3221.8 442.395L3176.67 468.397ZM3086.4 468.397L3041.27 442.405L3041.28 390.407L3086.41 364.402L3131.54 390.395L3131.53 442.395L3086.4 468.397Z" stroke="#00B3AA" stroke-width="3.11258"/>
<path d="M3131.54 1013.46L3086.41 987.465L3086.42 935.465L3131.55 909.46L3176.68 935.455L3176.67 987.456L3131.54 1013.46ZM3131.54 1168.92L3086.41 1142.92L3086.42 1090.92L3131.55 1064.92L3176.68 1090.91L3176.67 1142.91L3131.54 1168.92ZM3176.67 1090.91L3131.54 1064.92L3131.55 1012.92L3176.68 986.919L3221.8 1012.91L3221.8 1064.91L3176.67 1090.91ZM3086.4 1090.91L3041.27 1064.92L3041.28 1012.92L3086.41 986.919L3131.54 1012.91L3131.53 1064.91L3086.4 1090.91Z" stroke="#00B3AA" stroke-width="3.11258"/>
<path d="M3042.84 -77.2138L2997.71 -103.206L2997.72 -155.207L3042.85 -181.212L3087.98 -155.216L3087.97 -103.216L3042.84 -77.2138ZM3042.84 78.2445L2997.71 52.252L2997.72 0.251367L3042.85 -25.7505L3087.98 0.242044L3087.97 52.2395L3042.84 78.2445ZM3087.96 0.242044L3042.84 -25.7505L3042.84 -77.748L3087.98 -103.753L3133.1 -77.7604L3133.1 -25.7598L3087.96 0.242044ZM2997.7 0.242044L2952.57 -25.7505L2952.58 -77.748L2997.71 -103.753L3042.84 -77.7604L3042.83 -25.7598L2997.7 0.242044Z" stroke="#00B3AA" stroke-width="3.11258"/>
<path d="M3042.84 545.303L2997.71 519.31L2997.72 467.31L3042.85 441.305L3087.98 467.3L3087.97 519.301L3042.84 545.303ZM3042.84 700.761L2997.71 674.769L2997.72 622.768L3042.85 596.766L3087.98 622.759L3087.97 674.756L3042.84 700.761ZM3087.96 622.759L3042.84 596.766L3042.84 544.769L3087.98 518.764L3133.1 544.756L3133.1 596.757L3087.96 622.759ZM2997.7 622.759L2952.57 596.766L2952.58 544.769L2997.71 518.764L3042.84 544.756L3042.83 596.757L2997.7 622.759Z" stroke="#00B3AA" stroke-width="3.11258"/>
<path d="M3042.84 234.045L2997.71 208.052L2997.72 156.051L3042.85 130.047L3087.98 156.042L3087.97 208.043L3042.84 234.045ZM3042.84 389.503L2997.71 363.51L2997.72 311.51L3042.85 285.508L3087.98 311.5L3087.97 363.498L3042.84 389.503ZM3087.96 311.5L3042.84 285.508L3042.84 233.51L3087.98 207.505L3133.1 233.498L3133.1 285.499L3087.96 311.5ZM2997.7 311.5L2952.57 285.508L2952.58 233.51L2997.71 207.505L3042.84 233.498L3042.83 285.499L2997.7 311.5Z" stroke="#00B3AA" stroke-width="3.11258"/>
<path d="M3042.84 856.561L2997.71 830.569L2997.72 778.568L3042.85 752.563L3087.98 778.559L3087.97 830.559L3042.84 856.561ZM3042.84 1012.02L2997.71 986.027L2997.72 934.026L3042.85 908.024L3087.98 934.017L3087.97 986.014L3042.84 1012.02ZM3087.96 934.017L3042.84 908.024L3042.84 856.027L3087.98 830.022L3133.1 856.015L3133.1 908.015L3087.96 934.017ZM2997.7 934.017L2952.57 908.024L2952.58 856.027L2997.71 830.022L3042.84 856.015L3042.83 908.015L2997.7 934.017Z" stroke="#00B3AA" stroke-width="3.11258"/>
<path d="M3310.52 79.6829L3265.39 53.6904L3265.4 1.68977L3310.53 -24.3152L3355.66 1.68045L3355.65 53.681L3310.52 79.6829ZM3310.52 235.141L3265.39 209.149L3265.4 157.148L3310.53 131.146L3355.66 157.139L3355.65 209.136L3310.52 235.141ZM3355.65 157.139L3310.52 131.146L3310.53 79.1488L3355.66 53.1438L3400.78 79.1363L3400.78 131.137L3355.65 157.139ZM3265.38 157.139L3220.25 131.146L3220.26 79.1488L3265.39 53.1438L3310.52 79.1363L3310.51 131.137L3265.38 157.139Z" stroke="#00B3AA" stroke-width="3.11258"/>
<path d="M3310.52 702.199L3265.39 676.207L3265.4 624.206L3310.53 598.201L3355.66 624.197L3355.65 676.197L3310.52 702.199ZM3310.52 857.658L3265.39 831.665L3265.4 779.664L3310.53 753.663L3355.66 779.655L3355.65 831.653L3310.52 857.658ZM3355.65 779.655L3310.52 753.663L3310.53 701.665L3355.66 675.66L3400.78 701.653L3400.78 753.653L3355.65 779.655ZM3265.38 779.655L3220.25 753.663L3220.26 701.665L3265.39 675.66L3310.52 701.653L3310.51 753.653L3265.38 779.655Z" stroke="#00B3AA" stroke-width="3.11258"/>
<path d="M3310.52 390.941L3265.39 364.949L3265.4 312.948L3310.53 286.943L3355.66 312.939L3355.65 364.939L3310.52 390.941ZM3310.52 546.4L3265.39 520.407L3265.4 468.406L3310.53 442.405L3355.66 468.397L3355.65 520.395L3310.52 546.4ZM3355.65 468.397L3310.52 442.405L3310.53 390.407L3355.66 364.402L3400.78 390.395L3400.78 442.395L3355.65 468.397ZM3265.38 468.397L3220.25 442.405L3220.26 390.407L3265.39 364.402L3310.52 390.395L3310.51 442.395L3265.38 468.397Z" stroke="#00B3AA" stroke-width="3.11258"/>
<path d="M3310.52 1013.46L3265.39 987.465L3265.4 935.465L3310.53 909.46L3355.66 935.455L3355.65 987.456L3310.52 1013.46ZM3310.52 1168.92L3265.39 1142.92L3265.4 1090.92L3310.53 1064.92L3355.66 1090.91L3355.65 1142.91L3310.52 1168.92ZM3355.65 1090.91L3310.52 1064.92L3310.53 1012.92L3355.66 986.919L3400.78 1012.91L3400.78 1064.91L3355.65 1090.91ZM3265.38 1090.91L3220.25 1064.92L3220.26 1012.92L3265.39 986.919L3310.52 1012.91L3310.51 1064.91L3265.38 1090.91Z" stroke="#00B3AA" stroke-width="3.11258"/>
<path d="M3221.82 -77.2138L3176.69 -103.206L3176.7 -155.207L3221.83 -181.212L3266.96 -155.216L3266.95 -103.216L3221.82 -77.2138ZM3221.82 78.2445L3176.69 52.252L3176.7 0.251367L3221.83 -25.7505L3266.96 0.242044L3266.95 52.2395L3221.82 78.2445ZM3266.94 0.242044L3221.82 -25.7505L3221.82 -77.748L3266.96 -103.753L3312.08 -77.7604L3312.08 -25.7598L3266.94 0.242044ZM3176.68 0.242044L3131.55 -25.7505L3131.56 -77.748L3176.69 -103.753L3221.82 -77.7604L3221.81 -25.7598L3176.68 0.242044Z" stroke="#00B3AA" stroke-width="3.11258"/>
<path d="M3221.82 545.303L3176.69 519.31L3176.7 467.31L3221.83 441.305L3266.96 467.3L3266.95 519.301L3221.82 545.303ZM3221.82 700.761L3176.69 674.769L3176.7 622.768L3221.83 596.766L3266.96 622.759L3266.95 674.756L3221.82 700.761ZM3266.94 622.759L3221.82 596.766L3221.82 544.769L3266.96 518.764L3312.08 544.756L3312.08 596.757L3266.94 622.759ZM3176.68 622.759L3131.55 596.766L3131.56 544.769L3176.69 518.764L3221.82 544.756L3221.81 596.757L3176.68 622.759Z" stroke="#00B3AA" stroke-width="3.11258"/>
<path d="M3221.82 234.045L3176.69 208.052L3176.7 156.051L3221.83 130.047L3266.96 156.042L3266.95 208.043L3221.82 234.045ZM3221.82 389.503L3176.69 363.51L3176.7 311.51L3221.83 285.508L3266.96 311.5L3266.95 363.498L3221.82 389.503ZM3266.94 311.5L3221.82 285.508L3221.82 233.51L3266.96 207.505L3312.08 233.498L3312.08 285.499L3266.94 311.5ZM3176.68 311.5L3131.55 285.508L3131.56 233.51L3176.69 207.505L3221.82 233.498L3221.81 285.499L3176.68 311.5Z" stroke="#00B3AA" stroke-width="3.11258"/>
<path d="M3221.82 856.561L3176.69 830.569L3176.7 778.568L3221.83 752.563L3266.96 778.559L3266.95 830.559L3221.82 856.561ZM3221.82 1012.02L3176.69 986.027L3176.7 934.026L3221.83 908.024L3266.96 934.017L3266.95 986.014L3221.82 1012.02ZM3266.94 934.017L3221.82 908.024L3221.82 856.027L3266.96 830.022L3312.08 856.015L3312.08 908.015L3266.94 934.017ZM3176.68 934.017L3131.55 908.024L3131.56 856.027L3176.69 830.022L3221.82 856.015L3221.81 908.015L3176.68 934.017Z" stroke="#00B3AA" stroke-width="3.11258"/>
<path d="M3489.5 79.6829L3444.37 53.6904L3444.38 1.68977L3489.51 -24.3152L3534.64 1.68045L3534.63 53.681L3489.5 79.6829ZM3489.5 235.141L3444.37 209.149L3444.38 157.148L3489.51 131.146L3534.64 157.139L3534.63 209.136L3489.5 235.141ZM3534.62 157.139L3489.5 131.146L3489.5 79.1488L3534.64 53.1438L3579.76 79.1363L3579.76 131.137L3534.62 157.139ZM3444.36 157.139L3399.23 131.146L3399.24 79.1488L3444.37 53.1438L3489.5 79.1363L3489.49 131.137L3444.36 157.139Z" stroke="#00B3AA" stroke-width="3.11258"/>
<path d="M3489.5 702.199L3444.37 676.207L3444.38 624.206L3489.51 598.201L3534.64 624.197L3534.63 676.197L3489.5 702.199ZM3489.5 857.658L3444.37 831.665L3444.38 779.664L3489.51 753.663L3534.64 779.655L3534.63 831.653L3489.5 857.658ZM3534.62 779.655L3489.5 753.663L3489.5 701.665L3534.64 675.66L3579.76 701.653L3579.76 753.653L3534.62 779.655ZM3444.36 779.655L3399.23 753.663L3399.24 701.665L3444.37 675.66L3489.5 701.653L3489.49 753.653L3444.36 779.655Z" stroke="#00B3AA" stroke-width="3.11258"/>
<path d="M3489.5 390.941L3444.37 364.949L3444.38 312.948L3489.51 286.943L3534.64 312.939L3534.63 364.939L3489.5 390.941ZM3489.5 546.4L3444.37 520.407L3444.38 468.406L3489.51 442.405L3534.64 468.397L3534.63 520.395L3489.5 546.4ZM3534.62 468.397L3489.5 442.405L3489.5 390.407L3534.64 364.402L3579.76 390.395L3579.76 442.395L3534.62 468.397ZM3444.36 468.397L3399.23 442.405L3399.24 390.407L3444.37 364.402L3489.5 390.395L3489.49 442.395L3444.36 468.397Z" stroke="#00B3AA" stroke-width="3.11258"/>
<path d="M3489.5 1013.46L3444.37 987.465L3444.38 935.465L3489.51 909.46L3534.64 935.455L3534.63 987.456L3489.5 1013.46ZM3489.5 1168.92L3444.37 1142.92L3444.38 1090.92L3489.51 1064.92L3534.64 1090.91L3534.63 1142.91L3489.5 1168.92ZM3534.62 1090.91L3489.5 1064.92L3489.5 1012.92L3534.64 986.919L3579.76 1012.91L3579.76 1064.91L3534.62 1090.91ZM3444.36 1090.91L3399.23 1064.92L3399.24 1012.92L3444.37 986.919L3489.5 1012.91L3489.49 1064.91L3444.36 1090.91Z" stroke="#00B3AA" stroke-width="3.11258"/>
<path d="M3400.8 -77.2138L3355.67 -103.206L3355.68 -155.207L3400.81 -181.212L3445.93 -155.216L3445.93 -103.216L3400.8 -77.2138ZM3400.8 78.2445L3355.67 52.252L3355.68 0.251367L3400.81 -25.7505L3445.93 0.242044L3445.93 52.2395L3400.8 78.2445ZM3445.92 0.242044L3400.8 -25.7505L3400.8 -77.748L3445.93 -103.753L3491.06 -77.7604L3491.05 -25.7598L3445.92 0.242044ZM3355.66 0.242044L3310.53 -25.7505L3310.54 -77.748L3355.67 -103.753L3400.8 -77.7604L3400.79 -25.7598L3355.66 0.242044Z" stroke="#00B3AA" stroke-width="3.11258"/>
<path d="M3400.8 545.303L3355.67 519.31L3355.68 467.31L3400.81 441.305L3445.93 467.3L3445.93 519.301L3400.8 545.303ZM3400.8 700.761L3355.67 674.769L3355.68 622.768L3400.81 596.766L3445.93 622.759L3445.93 674.756L3400.8 700.761ZM3445.92 622.759L3400.8 596.766L3400.8 544.769L3445.93 518.764L3491.06 544.756L3491.05 596.757L3445.92 622.759ZM3355.66 622.759L3310.53 596.766L3310.54 544.769L3355.67 518.764L3400.8 544.756L3400.79 596.757L3355.66 622.759Z" stroke="#00B3AA" stroke-width="3.11258"/>
<path d="M3400.8 234.045L3355.67 208.052L3355.68 156.051L3400.81 130.047L3445.93 156.042L3445.93 208.043L3400.8 234.045ZM3400.8 389.503L3355.67 363.51L3355.68 311.51L3400.81 285.508L3445.93 311.5L3445.93 363.498L3400.8 389.503ZM3445.92 311.5L3400.8 285.508L3400.8 233.51L3445.93 207.505L3491.06 233.498L3491.05 285.499L3445.92 311.5ZM3355.66 311.5L3310.53 285.508L3310.54 233.51L3355.67 207.505L3400.8 233.498L3400.79 285.499L3355.66 311.5Z" stroke="#00B3AA" stroke-width="3.11258"/>
<path d="M3400.8 856.561L3355.67 830.569L3355.68 778.568L3400.81 752.563L3445.93 778.559L3445.93 830.559L3400.8 856.561ZM3400.8 1012.02L3355.67 986.027L3355.68 934.026L3400.81 908.024L3445.93 934.017L3445.93 986.014L3400.8 1012.02ZM3445.92 934.017L3400.8 908.024L3400.8 856.027L3445.93 830.022L3491.06 856.015L3491.05 908.015L3445.92 934.017ZM3355.66 934.017L3310.53 908.024L3310.54 856.027L3355.67 830.022L3400.8 856.015L3400.79 908.015L3355.66 934.017Z" stroke="#00B3AA" stroke-width="3.11258"/>
</g>
</g>
<defs>
<linearGradient id="paint0_linear_19_785" x1="850" y1="-673" x2="850" y2="908.192" gradientUnits="userSpaceOnUse">
<stop offset="0.45317" stop-color="#D9D9D9"/>
<stop offset="0.974029" stop-color="white" stop-opacity="0"/>
</linearGradient>
<linearGradient id="paint1_linear_19_785" x1="2551" y1="-673" x2="2551" y2="908.192" gradientUnits="userSpaceOnUse">
<stop offset="0.45317" stop-color="#D9D9D9"/>
<stop offset="0.974029" stop-color="white" stop-opacity="0"/>
</linearGradient>
<clipPath id="clip0_19_785">
<rect width="1734" height="908" fill="white"/>
</clipPath>
<clipPath id="clip1_19_785">
<rect width="1734" height="908" fill="white" transform="translate(1701)"/>
</clipPath>
</defs>
</svg>
